<?xml version="1.0" encoding="UTF-8"?>
<svg
   version="1.1"
   viewBox="0 0 975 629.55"
   xmlns:dc="http://purl.org/dc/elements/1.1/"
   xmlns:cc="http://creativecommons.org/ns#"
   xmlns="http://www.w3.org/2000/svg"
   xmlns:rdf="http://www.w3.org/1999/02/22-rdf-syntax-ns#"
>
  <title
     id="title">Blue Comic Mammals Ocean Whale</title>
  <metadata
     id="metadata166">
    <rdf:RDF>
      <cc:Work
         rdf:about="">
        <dc:format>image/svg+xml</dc:format>
        <dc:type
           rdf:resource="http://purl.org/dc/dcmitype/StillImage" />
        <dc:title>Blue Comic Mammals Ocean Whale</dc:title>
        <dc:source>https://pixabay.com/vectors/blue-comic-mammals-ocean-whale-1296931/</dc:source>
        <dc:creator>
          <cc:Agent>
            <dc:title>https://pixabay.com/users/openclipart-vectors-30363/?tab=about</dc:title>
          </cc:Agent>
        </dc:creator>
        <dc:rights>
          <cc:Agent>
            <dc:title>https://pixabay.com/service/license/</dc:title>
          </cc:Agent>
        </dc:rights>
        <dc:publisher>
          <cc:Agent>
            <dc:title>https://pixabay.com</dc:title>
          </cc:Agent>
        </dc:publisher>
        <dc:identifier>blue-comic-mammals-ocean-whale-1296931</dc:identifier>
        <dc:date>March 31, 2016</dc:date>
        <dc:description>Blue Whale Blowing</dc:description>
        <dc:language>English</dc:language>
        <dc:subject>
          <rdf:Bag>
            <rdf:li>Whale</rdf:li>
            <rdf:li>Spout</rdf:li>
          </rdf:Bag>
        </dc:subject>
      </cc:Work>
    </rdf:RDF>
  </metadata>
 <g transform="translate(1851.9 168.5)">
  <g transform="matrix(.58873 0 0 .58873 -1488.3 -47.434)">
   <path d="m-597.14 320.93c-127.75 565.44 937.91 845.45 1368.6-8.5714 127.31 26.764 210.78-18.199 254.29-128.57-67.272-30.913-133.39-66.426-222.86-8.5714 21.579-76.507-31.743-141.49-108.57-202.86-67.176 83.98-83.018 176.06-5.7143 282.86-744.71 118.62-1287-209.05-1285.7 65.714" fill="#0cf" stroke="#000" stroke-width="20"/>
   <path d="m-589.01 320.25c-127.75 565.44 929.34 831.16 1360-22.857 63.631 47.989 204.56-0.88764 248.57-111.43-74.323-23.827-130.18-75.314-225.71 8.5714-190.37 434.99-1114.6 786.67-1382.9 125.71" fill="#00aad4"/>
   <path transform="translate(-397.14 31.429)" d="m191.43 538.08c0 25.247-20.467 45.714-45.714 45.714s-45.714-20.467-45.714-45.714 20.467-45.714 45.714-45.714 45.714 20.467 45.714 45.714z" fill="#fff"/>
   <path transform="matrix(.71875 0 0 .71875 -357.59 184.19)" d="m191.43 538.08c0 25.247-20.467 45.714-45.714 45.714s-45.714-20.467-45.714-45.714 20.467-45.714 45.714-45.714 45.714 20.467 45.714 45.714z"/>
   <path transform="matrix(.28125 0 0 .28125 -275.27 409.6)" d="m191.43 538.08c0 25.247-20.467 45.714-45.714 45.714s-45.714-20.467-45.714-45.714 20.467-45.714 45.714-45.714 45.714 20.467 45.714 45.714z" fill="#fff"/>
   <path d="m-477.14 692.36c114.27 30.46 187.87 2.0411 257.14-20" fill="none" stroke="#000" stroke-linecap="round" stroke-width="20"/>
   <g fill="#0cf">
    <path d="m-231.22 171.65c-1.5391-339.72-303.95-236.31-226.31-193.78-9.2802 14.342 189.3-22.413 226.31 193.78"/>
    <path d="m-229.88 169.04c4.5709-339.69 306.05-233.59 228.03-191.76 9.1518 14.424-189.1-24.102-228.03 191.76"/>
    <path d="m-203.75-9.6879c18.502-198.64 190.04-122.48 142.42-101.63 4.6854 8.8704-109.57-22.92-142.42 101.63"/>
    <path d="m-241.98-8.4837c4.3408-199.45-174.79-143.42-129.86-117.25-5.6693 8.2762 111.48-10.235 129.86 117.25"/>
   </g>
  </g>
 </g>
</svg>
