<?xml version="1.0" encoding="UTF-8" standalone="no"?>
<svg
   xmlns:dc="http://purl.org/dc/elements/1.1/"
   xmlns:cc="http://creativecommons.org/ns#"
   xmlns:rdf="http://www.w3.org/1999/02/22-rdf-syntax-ns#"
   xmlns:svg="http://www.w3.org/2000/svg"
   xmlns="http://www.w3.org/2000/svg"
   xmlns:xlink="http://www.w3.org/1999/xlink"
   xmlns:sodipodi="http://sodipodi.sourceforge.net/DTD/sodipodi-0.dtd"
   xmlns:inkscape="http://www.inkscape.org/namespaces/inkscape"
   id="svg202"
   viewBox="0 0 465.63 401.22"
   version="1.1"
   sodipodi:docname="dataset-312111-153008-mix.svg"
   inkscape:version="0.92.2 5c3e80d, 2017-08-06">
  <sodipodi:namedview
     pagecolor="#ffffff"
     bordercolor="#666666"
     borderopacity="1"
     objecttolerance="10"
     gridtolerance="10"
     guidetolerance="10"
     inkscape:pageopacity="0"
     inkscape:pageshadow="2"
     inkscape:window-width="1559"
     inkscape:window-height="931"
     id="namedview941"
     showgrid="false"
     inkscape:zoom="0.15817465"
     inkscape:cx="120.49575"
     inkscape:cy="200.61"
     inkscape:window-x="0"
     inkscape:window-y="0"
     inkscape:window-maximized="0"
     inkscape:current-layer="svg202" />
  <metadata
     id="metadata206">
    <rdf:RDF>
      <cc:Work
         rdf:about="">
        <dc:format>image/svg+xml</dc:format>
        <dc:type
           rdf:resource="http://purl.org/dc/dcmitype/StillImage" />
        <dc:title />
      </cc:Work>
    </rdf:RDF>
  </metadata>
  <defs
     id="defs32">
    <linearGradient
       id="a">
      <stop
         id="stop2"
         offset="0"
         stop-color="#dadada" />
      <stop
         id="stop4"
         offset=".34923"
         stop-color="#f1f1f1" />
      <stop
         id="stop6"
         offset="1"
         stop-color="#f0f0f0" />
    </linearGradient>
    <linearGradient
       gradientUnits="userSpaceOnUse"
       gradientTransform="scale(0.98901,1.0111)"
       y2="418.54"
       y1="236.13"
       x2="330.88"
       x1="687.97"
       id="d">
      <stop
         id="stop9"
         offset="0"
         stop-color="#fff" />
      <stop
         id="stop11"
         offset="1"
         stop-opacity="0"
         stop-color="#fff" />
    </linearGradient>
    <linearGradient
       y2=".00781"
       y1=".97656"
       x2=".78261"
       x1=".05217"
       id="c">
      <stop
         id="stop14"
         offset="0"
         stop-opacity=".09551" />
      <stop
         id="stop16"
         offset="1"
         stop-opacity="0" />
    </linearGradient>
    <linearGradient
       gradientUnits="userSpaceOnUse"
       y2="138.9"
       y1="60.283"
       x2="37.199"
       x1="127.7"
       id="b">
      <stop
         id="stop19"
         offset="0" />
      <stop
         id="stop21"
         offset=".31508"
         stop-opacity=".27559" />
      <stop
         id="stop23"
         offset="1"
         stop-opacity="0" />
    </linearGradient>
    <linearGradient
       xlink:href="#a"
       gradientUnits="userSpaceOnUse"
       gradientTransform="scale(0.95542,1.0467)"
       y2="689.86"
       y1="230.07"
       x2="351.71"
       x1="728.96"
       id="f" />
    <linearGradient
       xlink:href="#a"
       gradientUnits="userSpaceOnUse"
       gradientTransform="scale(0.95531,1.0468)"
       y2="287.74"
       y1="169.45"
       x2="622.31"
       x1="741.62"
       id="e" />
    <linearGradient
       xlink:href="#c"
       gradientUnits="userSpaceOnUse"
       gradientTransform="scale(0.94319,1.0602)"
       y2="389.19"
       y1="836.03"
       x2="544.79"
       x1="207.87"
       id="linearGradient1372" />
    <linearGradient
       xlink:href="#c"
       gradientUnits="userSpaceOnUse"
       gradientTransform="scale(0.94394,1.0594)"
       y2="386.49"
       y1="839.62"
       x2="546.29"
       x1="204.63"
       id="linearGradient1374" />
    <linearGradient
       xlink:href="#c"
       gradientUnits="userSpaceOnUse"
       gradientTransform="scale(0.9447,1.0585)"
       y2="383.78"
       y1="843.22"
       x2="547.8"
       x1="201.38"
       id="linearGradient1376" />
    <linearGradient
       xlink:href="#b"
       gradientUnits="userSpaceOnUse"
       y2="138.9"
       y1="60.283"
       x2="37.199"
       x1="127.7"
       id="linearGradient1380" />
  </defs>
  <path
     id="path34"
     stroke-width="1.0045"
     fill="#0f0"
     d="m0 0h465.63v401.22h-465.63z" />
  <g
     id="g1066"
     transform="matrix(8.5754319,0,0,8.5754319,57.3034,5.5412095)">
    <polygon
       id="polygon962"
       points="36.002,43.468 1.531,43.468 1.671,2.321 36.002,2.321 "
       style="fill:#ffffff" />
    <path
       id="path964"
       d="M 35.507,2.817 V 42.973 H 2.028 L 2.165,2.817 H 35.507 M 36.498,1.825 H 1.177 L 1.033,43.964 h 35.465 z"
       inkscape:connector-curvature="0"
       style="fill:#58595b" />
    <g
       id="g986"
       style="fill:#cccccc">
      <rect
         id="rect966"
         height="1.487"
         width="28.277"
         y="6.2249999"
         x="4.5029998" />
      <rect
         id="rect968"
         height="1.487"
         width="28.277"
         y="9.6949997"
         x="4.5029998" />
      <rect
         id="rect970"
         height="1.488"
         width="28.277"
         y="13.165"
         x="4.5029998" />
      <rect
         id="rect972"
         height="1.487"
         width="28.277"
         y="16.635"
         x="4.5029998" />
      <rect
         id="rect974"
         height="1.487"
         width="28.277"
         y="20.105"
         x="4.5029998" />
      <rect
         id="rect976"
         height="1.488"
         width="28.277"
         y="23.575001"
         x="4.5029998" />
      <rect
         id="rect978"
         height="1.487"
         width="28.277"
         y="27.046"
         x="4.5029998" />
      <rect
         id="rect980"
         height="1.4859999"
         width="28.277"
         y="30.517"
         x="4.5029998" />
      <rect
         id="rect982"
         height="1.487"
         width="28.277"
         y="33.986"
         x="4.5029998" />
      <rect
         id="rect984"
         height="1.488"
         width="28.277"
         y="37.456001"
         x="4.5029998" />
    </g>
    <g
       id="g1006"
       style="opacity:0.75">
      <path
         id="path988"
         d="m 9.523,37.242 v -0.497 l 4.522,-7.188 22.517,-22.556 3.45,-3.594 2.025,-1.942 c 0,0 0.867,-0.166 1.693,0 0.826,0.166 1.238,0.909 1.28,1.446 0.095,0.788 0.095,0.788 0,1.57 C 42.986,6.534 43.189,6.329 17,32.409 l -6.94,4.833 z"
         inkscape:connector-curvature="0" />
      <path
         id="path990"
         d="M 11.345,36.348 17.002,32.41 C 43.189,6.329 42.986,6.535 45.012,4.482 45.106,3.7 45.106,3.7 45.012,2.911 44.97,2.375 44.557,1.631 43.731,1.466 c -0.826,-0.165 -1.693,0 -1.693,0 l -2.024,1.942 -3.45,3.594 -22.518,22.557 -3.623,5.712 z"
         inkscape:connector-curvature="0" />
      <polygon
         id="polygon992"
         points="17,32.201 14.258,29.557 36.564,7.209 39.391,9.889 " />
      <path
         id="path994"
         d="M 36.567,7.417 39.176,9.892 16.997,31.992 14.47,29.554 36.567,7.417 M 36.562,7.001 14.046,29.559 17.001,32.41 39.604,9.887 Z"
         inkscape:connector-curvature="0" />
      <path
         id="path996"
         d="M 40.012,3.408"
         inkscape:connector-curvature="0" />
      <path
         id="path998"
         d="m 39.728,3.906 2.413,-2.333 c 0.095,-0.019 0.32,-0.046 0.599,-0.046 0.44,0 0.851,0.065 0.966,0.085 0.785,0.157 1.123,0.87 1.157,1.311 0.085,0.61 0.106,0.991 0.002,1.53 -0.377,0.383 -0.866,0.861 -1.437,1.42 -0.28,0.273 -0.58,0.566 -0.899,0.885 z"
         inkscape:connector-curvature="0" />
      <path
         id="path1000"
         d="m 42.738,1.675 c 0.43,0 0.829,0.063 0.934,0.082 0.703,0.141 1.013,0.797 1.044,1.195 0.079,0.565 0.102,0.913 0.018,1.392 -0.397,0.432 -0.868,0.893 -1.41,1.423 -0.249,0.244 -0.514,0.502 -0.794,0.78 L 39.939,3.908 42.193,1.729 c 0.104,-0.027 0.274,-0.054 0.545,-0.054 m 10e-4,-0.297 c -0.265,0 -0.518,0.023 -0.702,0.087 -0.677,0.654 -2.521,2.438 -2.521,2.438 l 3.011,3.066 C 43.55,5.945 44.371,5.185 45.01,4.481 45.122,3.9 45.092,3.498 45.01,2.911 44.968,2.374 44.556,1.631 43.73,1.465 43.478,1.421 43.099,1.378 42.739,1.378 Z"
         inkscape:connector-curvature="0" />
      <polygon
         id="polygon1002"
         points="39.246,10.032 36.421,7.208 40.011,3.619 42.813,6.472 " />
      <path
         id="path1004"
         d="m 40.01,3.83 2.594,2.642 C 41.688,7.387 40.543,8.53 39.247,9.823 L 36.633,7.21 40.01,3.83 m 0.002,-0.423 -3.801,3.801 3.035,3.034 c 1.484,-1.48 2.781,-2.774 3.776,-3.769 z"
         inkscape:connector-curvature="0" />
    </g>
    <path
       id="path1008"
       d="M 9.028,36.746 V 36.249 L 13.55,29.061 36.065,6.505 39.515,2.911 41.54,0.969 c 0,0 0.867,-0.166 1.693,0 0.826,0.166 1.238,0.909 1.28,1.446 0.095,0.788 0.095,0.788 0,1.57 -2.024,2.053 -1.821,1.848 -28.009,27.927 l -6.94,4.833 H 9.028 Z"
       inkscape:connector-curvature="0" />
    <path
       id="path1010"
       d="m 10.849,35.852 5.657,-3.938 C 42.693,5.833 42.49,6.04 44.516,3.986 44.61,3.204 44.61,3.204 44.516,2.415 44.474,1.879 44.061,1.135 43.235,0.97 c -0.826,-0.165 -1.693,0 -1.693,0 l -2.024,1.942 -3.45,3.594 -22.517,22.557 -3.623,5.712 z"
       inkscape:connector-curvature="0"
       style="fill:#e1aa84" />
    <polygon
       id="polygon1012"
       points="16.504,31.705 13.762,29.061 36.068,6.713 38.895,9.394 "
       style="fill:#f8b019" />
    <path
       id="path1014"
       d="M 36.071,6.921 38.68,9.396 16.501,31.496 13.974,29.058 36.071,6.921 M 36.065,6.506 13.55,29.063 16.505,31.914 39.107,9.391 Z"
       inkscape:connector-curvature="0"
       style="fill:#da8628" />
    <path
       id="path1016"
       d="M 39.516,2.912"
       inkscape:connector-curvature="0" />
    <path
       id="path1018"
       d="m 39.231,3.41 2.413,-2.333 c 0.095,-0.019 0.32,-0.046 0.599,-0.046 0.44,0 0.851,0.065 0.966,0.085 0.785,0.157 1.123,0.87 1.157,1.311 0.085,0.61 0.106,0.991 0.002,1.53 -0.377,0.383 -0.866,0.861 -1.437,1.42 -0.28,0.273 -0.58,0.566 -0.899,0.885 z"
       inkscape:connector-curvature="0"
       style="fill:#f9ae86" />
    <path
       id="path1020"
       d="m 42.242,1.18 c 0.43,0 0.829,0.063 0.934,0.082 0.703,0.141 1.013,0.797 1.044,1.195 0.079,0.565 0.102,0.913 0.018,1.392 -0.397,0.432 -0.868,0.893 -1.41,1.423 -0.249,0.244 -0.514,0.502 -0.794,0.78 L 39.443,3.413 41.697,1.234 C 41.801,1.206 41.971,1.18 42.242,1.18 m 0.001,-0.298 c -0.265,0 -0.518,0.023 -0.702,0.087 -0.677,0.654 -2.521,2.438 -2.521,2.438 l 3.011,3.066 c 1.023,-1.024 1.844,-1.784 2.483,-2.488 0.112,-0.581 0.082,-0.983 0,-1.57 C 44.472,1.878 44.06,1.135 43.234,0.969 42.981,0.926 42.603,0.882 42.243,0.882 Z"
       inkscape:connector-curvature="0"
       style="fill:#f16141" />
    <polygon
       id="polygon1022"
       points="38.75,9.537 35.925,6.713 39.515,3.123 42.316,5.977 "
       style="fill:#c4c3c4" />
    <path
       id="path1024"
       d="m 39.514,3.334 2.594,2.642 c -0.916,0.915 -2.061,2.058 -3.357,3.351 l -2.614,-2.613 3.377,-3.38 m 0.002,-0.422 -3.801,3.801 3.035,3.034 c 1.484,-1.48 2.781,-2.774 3.776,-3.769 z"
       inkscape:connector-curvature="0"
       style="fill:#6d6e71" />
  </g>
  <path
     id="path200"
     d="m 113.49,55.677 c -11.205,0 -20.23,9.0089 -20.23,20.214 v 207.01 c 0,11.205 9.0243,20.23 20.23,20.23 H 320.5 c 11.205,0 20.214,-9.0243 20.214,-20.23 V 75.891 c 0,-11.205 -9.0089,-20.214 -20.214,-20.214 z m 93.395,38.444 c 48.405,0 87.644,39.238 87.644,87.644 h 18.822 l -29.495,43.258 -28.937,-43.258 h 18.25 c 0,-35.683 -29.673,-64.616 -66.289,-64.616 -36.616,1e-5 -66.304,28.932 -66.304,64.616 0,35.684 29.689,64.601 66.304,64.601 v 23.044 c -48.405,0 -87.644,-39.241 -87.644,-87.644 0,-48.404 39.238,-87.644 87.644,-87.644 z m 26.158,59.964 c 1.4226,-0.0106 2.7282,0.46501 3.6645,1.4538 l 0.77331,0.81968 c 2.1401,2.2601 1.5008,6.3275 -1.4374,9.1094 l -30.747,29.092 c -2.9382,2.7822 -7.0159,3.2036 -9.1559,0.94341 l -0.0773,-0.0773 c -0.52684,-0.26101 -1.0508,-0.58054 -1.5466,-0.9589 l -20.987,-16.023 c -3.2168,-2.4547 -4.2855,-6.4185 -2.3973,-8.8931 l 0.68051,-0.89703 c 1.8882,-2.4744 6.0008,-2.4857 9.2178,-0.0309 l 18.652,14.244 27.854,-26.385 c 1.6527,-1.565 3.6768,-2.3836 5.5059,-2.3973 z"
     inkscape:connector-curvature="0"
     style="fill:#88886e;stroke-width:0.49491" />
</svg>
