<?xml version="1.0" encoding="UTF-8" standalone="no"?>
<svg
   xmlns:dc="http://purl.org/dc/elements/1.1/"
   xmlns:cc="http://creativecommons.org/ns#"
   xmlns:rdf="http://www.w3.org/1999/02/22-rdf-syntax-ns#"
   xmlns:svg="http://www.w3.org/2000/svg"
   xmlns="http://www.w3.org/2000/svg"
   xmlns:xlink="http://www.w3.org/1999/xlink"
   id="svg202"
   viewBox="0 0 465.63 401.22"
   version="1.1">
  <metadata
     id="metadata206">
    <rdf:RDF>
      <cc:Work
         rdf:about="">
        <dc:format>image/svg+xml</dc:format>
        <dc:type
           rdf:resource="http://purl.org/dc/dcmitype/StillImage" />
        <dc:title></dc:title>
      </cc:Work>
    </rdf:RDF>
  </metadata>
  <defs
     id="defs32">
    <linearGradient
       id="a">
      <stop
         id="stop2"
         offset="0"
         stop-color="#dadada" />
      <stop
         id="stop4"
         offset=".34923"
         stop-color="#f1f1f1" />
      <stop
         id="stop6"
         offset="1"
         stop-color="#f0f0f0" />
    </linearGradient>
    <linearGradient
       gradientUnits="userSpaceOnUse"
       gradientTransform="scale(.98901 1.0111)"
       y2="418.54"
       y1="236.13"
       x2="330.88"
       x1="687.97"
       id="d">
      <stop
         id="stop9"
         offset="0"
         stop-color="#fff" />
      <stop
         id="stop11"
         offset="1"
         stop-opacity="0"
         stop-color="#fff" />
    </linearGradient>
    <linearGradient
       y2=".00781"
       y1=".97656"
       x2=".78261"
       x1=".05217"
       id="c">
      <stop
         id="stop14"
         offset="0"
         stop-opacity=".09551" />
      <stop
         id="stop16"
         offset="1"
         stop-opacity="0" />
    </linearGradient>
    <linearGradient
       gradientUnits="userSpaceOnUse"
       y2="138.9"
       y1="60.283"
       x2="37.199"
       x1="127.7"
       id="b">
      <stop
         id="stop19"
         offset="0" />
      <stop
         id="stop21"
         offset=".31508"
         stop-opacity=".27559" />
      <stop
         id="stop23"
         offset="1"
         stop-opacity="0" />
    </linearGradient>
    <linearGradient
       xlink:href="#a"
       gradientUnits="userSpaceOnUse"
       gradientTransform="scale(.95542 1.0467)"
       y2="689.86"
       y1="230.07"
       x2="351.71"
       x1="728.96"
       id="f" />
    <linearGradient
       xlink:href="#a"
       gradientUnits="userSpaceOnUse"
       gradientTransform="scale(.95531 1.0468)"
       y2="287.74"
       y1="169.45"
       x2="622.31"
       x1="741.62"
       id="e" />
    <linearGradient
       xlink:href="#c"
       gradientUnits="userSpaceOnUse"
       gradientTransform="scale(.94319 1.0602)"
       y2="389.19"
       y1="836.03"
       x2="544.79"
       x1="207.87"
       id="linearGradient1372" />
    <linearGradient
       xlink:href="#c"
       gradientUnits="userSpaceOnUse"
       gradientTransform="scale(.94394 1.0594)"
       y2="386.49"
       y1="839.62"
       x2="546.29"
       x1="204.63"
       id="linearGradient1374" />
    <linearGradient
       xlink:href="#c"
       gradientUnits="userSpaceOnUse"
       gradientTransform="scale(.9447 1.0585)"
       y2="383.78"
       y1="843.22"
       x2="547.8"
       x1="201.38"
       id="linearGradient1376" />
    <linearGradient
       xlink:href="#b"
       gradientUnits="userSpaceOnUse"
       y2="138.9"
       y1="60.283"
       x2="37.199"
       x1="127.7"
       id="linearGradient1380" />
  </defs>
  <path
     id="path34"
     stroke-width="1.0045"
     fill="#0f0"
     d="m0 0h465.63v401.22h-465.63z" />
  <g
     id="g198"
     transform="matrix(2.5042 0 0 2.5042 30.071 .4491)">
    <g
       id="g54"
       fill-rule="evenodd">
      <path
         id="path36"
         fill="#fff"
         d="m17.159 6.3293v146.96h134.11v-110.22l-33.528-36.739h-100.58z" />
      <g
         id="g44"
         fill-opacity=".75"
         transform="matrix(.30417 0 0 .29757 -36.704 -112.49)">
        <path
           id="path38"
           fill="url(#linearGradient1372)"
           d="m173.36 408.81v489.04h435.05v-366.78l-108.76-122.26z" />
        <path
           id="path40"
           fill="url(#linearGradient1374)"
           d="m170.12 407.19v493.91h441.53v-371.28c-36.847-41.423-73.68-82.859-110.56-124.25h-330.97v1.625z" />
        <path
           id="path42"
           fill="url(#linearGradient1376)"
           d="m166.88 403.94v500.41h448.03v-375.78c-37.451-42.09-74.889-84.192-112.38-126.25h-335.66v1.625z" />
      </g>
      <path
         id="path46"
         stroke-width="1.4375"
         stroke-opacity=".36478"
         stroke="#000"
         fill="url(#f)"
         d="m297.99 136.74v495.32h452.02v-371.49l-113.01-123.83h-339.02z"
         transform="matrix(.29669 0 0 .29669 -71.196 -34.058)" />
      <path
         id="path48"
         fill="url(#d)"
         d="m301.31 174.91-2.0359 454h443.82l0.25448-112.23c-9.9248 3.8172-110.19-138.18-236.41-132.08-126.34 6.1131-93.649-191.37-205.62-209.69z"
         transform="matrix(.29669 0 0 .29669 -71.196 -34.058)" />
      <path
         id="path50"
         fill="url(#e)"
         d="m750.01 260.57c-34.07-10.086-78.216-8.6561-111.57-2.9072 5.7583-36.949 6.478-83.255-1.4396-120.92l113.01 123.83z"
         transform="matrix(.29669 0 0 .29669 -71.196 -34.058)" />
      <path
         id="path52"
         fill-opacity=".43396"
         fill="#7b7b7b"
         d="m31.922 18.268h74.377v20.954h-74.377z" />
    </g>
    <g
       id="g196"
       font-size="14"
       fill="url(#linearGradient1380)"
       transform="translate(-5.2771 -.50876)">
      <path
         id="path56"
         d="m40.517 59.169c-2.002 0-3.318 1.764-3.318 4.858s1.316 4.872 3.318 4.872 3.318-1.778 3.318-4.872-1.316-4.858-3.318-4.858m0 0.658c1.288 0 1.988 1.428 1.988 4.2s-0.7 4.2-1.988 4.2-2.002-1.414-2.002-4.186c0-2.786 0.714-4.214 2.002-4.214" />
      <path
         id="path58"
         d="m48.772 59.169-3.038 0.91v0.588l2.198-0.392v7.532l-0.168 0.238-1.61 0.084v0.602h4.69v-0.588l-1.512-0.07-0.168-0.21v-8.694h-0.392" />
      <path
         id="path60"
         d="m56.103 59.169c-2.002 0-3.318 1.764-3.318 4.858s1.316 4.872 3.318 4.872 3.318-1.778 3.318-4.872-1.316-4.858-3.318-4.858m0 0.658c1.288 0 1.988 1.428 1.988 4.2s-0.7 4.2-1.988 4.2-2.002-1.414-2.002-4.186c0-2.786 0.714-4.214 2.002-4.214" />
      <path
         id="path62"
         d="m64.358 59.169-3.038 0.91v0.588l2.198-0.392v7.532l-0.168 0.238-1.61 0.084v0.602h4.69v-0.588l-1.512-0.07-0.168-0.21v-8.694h-0.392" />
      <path
         id="path64"
         d="m72.151 59.169-3.038 0.91v0.588l2.198-0.392v7.532l-0.168 0.238-1.61 0.084v0.602h4.69v-0.588l-1.512-0.07-0.168-0.21v-8.694h-0.392" />
      <path
         id="path66"
         d="m79.944 59.169-3.038 0.91v0.588l2.198-0.392v7.532l-0.168 0.238-1.61 0.084v0.602h4.69v-0.588l-1.512-0.07-0.168-0.21v-8.694h-0.392" />
      <path
         id="path68"
         d="m87.275 59.169c-2.002 0-3.318 1.764-3.318 4.858s1.316 4.872 3.318 4.872 3.318-1.778 3.318-4.872-1.316-4.858-3.318-4.858m0 0.658c1.288 0 1.988 1.428 1.988 4.2s-0.7 4.2-1.988 4.2-2.002-1.414-2.002-4.186c0-2.786 0.714-4.214 2.002-4.214" />
      <path
         id="path70"
         d="m95.53 59.169-3.038 0.91v0.588l2.198-0.392v7.532l-0.168 0.238-1.61 0.084v0.602h4.69v-0.588l-1.512-0.07-0.168-0.21v-8.694h-0.392" />
      <path
         id="path72"
         d="m102.86 59.169c-2.002 0-3.318 1.764-3.318 4.858s1.316 4.872 3.318 4.872 3.318-1.778 3.318-4.872-1.316-4.858-3.318-4.858m0 0.658c1.288 0 1.988 1.428 1.988 4.2s-0.7 4.2-1.988 4.2-2.002-1.414-2.002-4.186c0-2.786 0.714-4.214 2.002-4.214" />
      <path
         id="path74"
         d="m111.12 59.169-3.038 0.91v0.588l2.198-0.392v7.532l-0.168 0.238-1.61 0.084v0.602h4.69v-0.588l-1.512-0.07-0.168-0.21v-8.694h-0.392" />
      <path
         id="path76"
         d="m118.45 59.169c-2.002 0-3.318 1.764-3.318 4.858s1.316 4.872 3.318 4.872 3.318-1.778 3.318-4.872-1.316-4.858-3.318-4.858m0 0.658c1.288 0 1.988 1.428 1.988 4.2s-0.7 4.2-1.988 4.2-2.002-1.414-2.002-4.186c0-2.786 0.714-4.214 2.002-4.214" />
      <path
         id="path78"
         d="m126.24 59.169c-2.002 0-3.318 1.764-3.318 4.858s1.316 4.872 3.318 4.872 3.318-1.778 3.318-4.872-1.316-4.858-3.318-4.858m0 0.658c1.288 0 1.988 1.428 1.988 4.2s-0.70001 4.2-1.988 4.2-2.002-1.414-2.002-4.186c0-2.786 0.714-4.214 2.002-4.214" />
      <path
         id="path80"
         d="m134.49 59.169-3.038 0.91v0.588l2.198-0.392v7.532l-0.168 0.238-1.61 0.084v0.602h4.69v-0.588l-1.512-0.07-0.168-0.21v-8.694h-0.39199" />
      <path
         id="path82"
         d="m141.83 59.169c-2.002 0-3.318 1.764-3.318 4.858s1.316 4.872 3.318 4.872 3.318-1.778 3.318-4.872-1.316-4.858-3.318-4.858m0 0.658c1.288 0 1.988 1.428 1.988 4.2s-0.7 4.2-1.988 4.2-2.002-1.414-2.002-4.186c0-2.786 0.71401-4.214 2.002-4.214" />
      <path
         id="path84"
         d="m40.979 76.669-3.038 0.91v0.588l2.198-0.392v7.532l-0.168 0.238-1.61 0.084v0.602h4.69v-0.588l-1.512-0.07-0.168-0.21v-8.694h-0.392" />
      <path
         id="path86"
         d="m48.31 76.669c-2.002 0-3.318 1.764-3.318 4.858s1.316 4.872 3.318 4.872 3.318-1.778 3.318-4.872-1.316-4.858-3.318-4.858m0 0.658c1.288 0 1.988 1.428 1.988 4.2s-0.7 4.2-1.988 4.2-2.002-1.414-2.002-4.186c0-2.786 0.714-4.214 2.002-4.214" />
      <path
         id="path88"
         d="m56.103 76.669c-2.002 0-3.318 1.764-3.318 4.858s1.316 4.872 3.318 4.872 3.318-1.778 3.318-4.872-1.316-4.858-3.318-4.858m0 0.658c1.288 0 1.988 1.428 1.988 4.2s-0.7 4.2-1.988 4.2-2.002-1.414-2.002-4.186c0-2.786 0.714-4.214 2.002-4.214" />
      <path
         id="path90"
         d="m63.896 76.669c-2.002 0-3.318 1.764-3.318 4.858s1.316 4.872 3.318 4.872 3.318-1.778 3.318-4.872-1.316-4.858-3.318-4.858m0 0.658c1.288 0 1.988 1.428 1.988 4.2s-0.7 4.2-1.988 4.2-2.002-1.414-2.002-4.186c0-2.786 0.714-4.214 2.002-4.214" />
      <path
         id="path92"
         d="m72.151 76.669-3.038 0.91v0.588l2.198-0.392v7.532l-0.168 0.238-1.61 0.084v0.602h4.69v-0.588l-1.512-0.07-0.168-0.21v-8.694h-0.392" />
      <path
         id="path94"
         d="m79.482 76.669c-2.002 0-3.318 1.764-3.318 4.858s1.316 4.872 3.318 4.872 3.318-1.778 3.318-4.872-1.316-4.858-3.318-4.858m0 0.658c1.288 0 1.988 1.428 1.988 4.2s-0.7 4.2-1.988 4.2-2.002-1.414-2.002-4.186c0-2.786 0.714-4.214 2.002-4.214" />
      <path
         id="path96"
         d="m87.737 76.669-3.038 0.91v0.588l2.198-0.392v7.532l-0.168 0.238-1.61 0.084v0.602h4.69v-0.588l-1.512-0.07-0.168-0.21v-8.694h-0.392" />
      <path
         id="path98"
         d="m95.068 76.669c-2.002 0-3.318 1.764-3.318 4.858s1.316 4.872 3.318 4.872 3.318-1.778 3.318-4.872-1.316-4.858-3.318-4.858m0 0.658c1.288 0 1.988 1.428 1.988 4.2s-0.7 4.2-1.988 4.2-2.002-1.414-2.002-4.186c0-2.786 0.714-4.214 2.002-4.214" />
      <path
         id="path100"
         d="m103.32 76.669-3.038 0.91v0.588l2.198-0.392v7.532l-0.168 0.238-1.61 0.084v0.602h4.69v-0.588l-1.512-0.07-0.168-0.21v-8.694h-0.392" />
      <path
         id="path102"
         d="m111.12 76.669-3.038 0.91v0.588l2.198-0.392v7.532l-0.168 0.238-1.61 0.084v0.602h4.69v-0.588l-1.512-0.07-0.168-0.21v-8.694h-0.392" />
      <path
         id="path104"
         d="m118.45 76.669c-2.002 0-3.318 1.764-3.318 4.858s1.316 4.872 3.318 4.872 3.318-1.778 3.318-4.872-1.316-4.858-3.318-4.858m0 0.658c1.288 0 1.988 1.428 1.988 4.2s-0.7 4.2-1.988 4.2-2.002-1.414-2.002-4.186c0-2.786 0.714-4.214 2.002-4.214" />
      <path
         id="path106"
         d="m126.7 76.669-3.038 0.91v0.588l2.198-0.392v7.532l-0.168 0.238-1.61 0.084v0.602h4.69v-0.588l-1.512-0.07-0.168-0.21v-8.694h-0.392" />
      <path
         id="path108"
         d="m134.03 76.669c-2.002 0-3.318 1.764-3.318 4.858s1.316 4.872 3.318 4.872 3.318-1.778 3.318-4.872-1.316-4.858-3.318-4.858m0 0.658c1.288 0 1.988 1.428 1.988 4.2s-0.7 4.2-1.988 4.2-2.002-1.414-2.002-4.186c0-2.786 0.71401-4.214 2.002-4.214" />
      <path
         id="path110"
         d="m142.29 76.669-3.038 0.91v0.588l2.198-0.392v7.532l-0.168 0.238-1.61 0.084v0.602h4.69v-0.588l-1.512-0.07-0.168-0.21v-8.694h-0.392" />
      <path
         id="path112"
         d="m40.517 94.169c-2.002 0-3.318 1.764-3.318 4.858s1.316 4.872 3.318 4.872 3.318-1.778 3.318-4.872-1.316-4.858-3.318-4.858m0 0.658c1.288 0 1.988 1.428 1.988 4.2s-0.7 4.2-1.988 4.2-2.002-1.414-2.002-4.186c0-2.786 0.714-4.214 2.002-4.214" />
      <path
         id="path114"
         d="m48.772 94.169-3.038 0.91v0.588l2.198-0.392v7.532l-0.168 0.238-1.61 0.084v0.602h4.69v-0.588l-1.512-0.07-0.168-0.21v-8.694h-0.392" />
      <path
         id="path116"
         d="m56.103 94.169c-2.002 0-3.318 1.764-3.318 4.858s1.316 4.872 3.318 4.872 3.318-1.778 3.318-4.872-1.316-4.858-3.318-4.858m0 0.658c1.288 0 1.988 1.428 1.988 4.2s-0.7 4.2-1.988 4.2-2.002-1.414-2.002-4.186c0-2.786 0.714-4.214 2.002-4.214" />
      <path
         id="path118"
         d="m64.358 94.169-3.038 0.91v0.588l2.198-0.392v7.532l-0.168 0.238-1.61 0.084v0.602h4.69v-0.588l-1.512-0.07-0.168-0.21v-8.694h-0.392" />
      <path
         id="path120"
         d="m71.689 94.169c-2.002 0-3.318 1.764-3.318 4.858s1.316 4.872 3.318 4.872 3.318-1.778 3.318-4.872-1.316-4.858-3.318-4.858m0 0.658c1.288 0 1.988 1.428 1.988 4.2s-0.7 4.2-1.988 4.2-2.002-1.414-2.002-4.186c0-2.786 0.714-4.214 2.002-4.214" />
      <path
         id="path122"
         d="m79.482 94.169c-2.002 0-3.318 1.764-3.318 4.858s1.316 4.872 3.318 4.872 3.318-1.778 3.318-4.872-1.316-4.858-3.318-4.858m0 0.658c1.288 0 1.988 1.428 1.988 4.2s-0.7 4.2-1.988 4.2-2.002-1.414-2.002-4.186c0-2.786 0.714-4.214 2.002-4.214" />
      <path
         id="path124"
         d="m87.737 94.169-3.038 0.91v0.588l2.198-0.392v7.532l-0.168 0.238-1.61 0.084v0.602h4.69v-0.588l-1.512-0.07-0.168-0.21v-8.694h-0.392" />
      <path
         id="path126"
         d="m95.068 94.169c-2.002 0-3.318 1.764-3.318 4.858s1.316 4.872 3.318 4.872 3.318-1.778 3.318-4.872-1.316-4.858-3.318-4.858m0 0.658c1.288 0 1.988 1.428 1.988 4.2s-0.7 4.2-1.988 4.2-2.002-1.414-2.002-4.186c0-2.786 0.714-4.214 2.002-4.214" />
      <path
         id="path128"
         d="m103.32 94.169-3.038 0.91v0.588l2.198-0.392v7.532l-0.168 0.238-1.61 0.084v0.602h4.69v-0.588l-1.512-0.07-0.168-0.21v-8.694h-0.392" />
      <path
         id="path130"
         d="m110.65 94.169c-2.002 0-3.318 1.764-3.318 4.858s1.316 4.872 3.318 4.872 3.318-1.778 3.318-4.872-1.316-4.858-3.318-4.858m0 0.658c1.288 0 1.988 1.428 1.988 4.2s-0.7 4.2-1.988 4.2-2.002-1.414-2.002-4.186c0-2.786 0.714-4.214 2.002-4.214" />
      <path
         id="path132"
         d="m118.91 94.169-3.038 0.91v0.588l2.198-0.392v7.532l-0.168 0.238-1.61 0.084v0.602h4.69v-0.588l-1.512-0.07-0.168-0.21v-8.694h-0.392" />
      <path
         id="path134"
         d="m126.7 94.169-3.038 0.91v0.588l2.198-0.392v7.532l-0.168 0.238-1.61 0.084v0.602h4.69v-0.588l-1.512-0.07-0.168-0.21v-8.694h-0.392" />
      <path
         id="path136"
         d="m134.49 94.169-3.038 0.91v0.588l2.198-0.392v7.532l-0.168 0.238-1.61 0.084v0.602h4.69v-0.588l-1.512-0.07-0.168-0.21v-8.694h-0.39199" />
      <path
         id="path138"
         d="m142.29 94.169-3.038 0.91v0.588l2.198-0.392v7.532l-0.168 0.238-1.61 0.084v0.602h4.69v-0.588l-1.512-0.07-0.168-0.21v-8.694h-0.392" />
      <path
         id="path140"
         d="m40.517 111.67c-2.002 0-3.318 1.764-3.318 4.858s1.316 4.872 3.318 4.872 3.318-1.778 3.318-4.872-1.316-4.858-3.318-4.858m0 0.658c1.288 0 1.988 1.428 1.988 4.2s-0.7 4.2-1.988 4.2-2.002-1.414-2.002-4.186c0-2.786 0.714-4.214 2.002-4.214" />
      <path
         id="path142"
         d="m48.772 111.67-3.038 0.91v0.588l2.198-0.392v7.532l-0.168 0.238-1.61 0.084v0.602h4.69v-0.588l-1.512-0.07-0.168-0.21v-8.694h-0.392" />
      <path
         id="path144"
         d="m56.103 111.67c-2.002 0-3.318 1.764-3.318 4.858s1.316 4.872 3.318 4.872 3.318-1.778 3.318-4.872-1.316-4.858-3.318-4.858m0 0.658c1.288 0 1.988 1.428 1.988 4.2s-0.7 4.2-1.988 4.2-2.002-1.414-2.002-4.186c0-2.786 0.714-4.214 2.002-4.214" />
      <path
         id="path146"
         d="m64.358 111.67-3.038 0.91v0.588l2.198-0.392v7.532l-0.168 0.238-1.61 0.084v0.602h4.69v-0.588l-1.512-0.07-0.168-0.21v-8.694h-0.392" />
      <path
         id="path148"
         d="m71.689 111.67c-2.002 0-3.318 1.764-3.318 4.858s1.316 4.872 3.318 4.872 3.318-1.778 3.318-4.872-1.316-4.858-3.318-4.858m0 0.658c1.288 0 1.988 1.428 1.988 4.2s-0.7 4.2-1.988 4.2-2.002-1.414-2.002-4.186c0-2.786 0.714-4.214 2.002-4.214" />
      <path
         id="path150"
         d="m79.482 111.67c-2.002 0-3.318 1.764-3.318 4.858s1.316 4.872 3.318 4.872 3.318-1.778 3.318-4.872-1.316-4.858-3.318-4.858m0 0.658c1.288 0 1.988 1.428 1.988 4.2s-0.7 4.2-1.988 4.2-2.002-1.414-2.002-4.186c0-2.786 0.714-4.214 2.002-4.214" />
      <path
         id="path152"
         d="m87.737 111.67-3.038 0.91v0.588l2.198-0.392v7.532l-0.168 0.238-1.61 0.084v0.602h4.69v-0.588l-1.512-0.07-0.168-0.21v-8.694h-0.392" />
      <path
         id="path154"
         d="m95.068 111.67c-2.002 0-3.318 1.764-3.318 4.858s1.316 4.872 3.318 4.872 3.318-1.778 3.318-4.872-1.316-4.858-3.318-4.858m0 0.658c1.288 0 1.988 1.428 1.988 4.2s-0.7 4.2-1.988 4.2-2.002-1.414-2.002-4.186c0-2.786 0.714-4.214 2.002-4.214" />
      <path
         id="path156"
         d="m102.86 111.67c-2.002 0-3.318 1.764-3.318 4.858s1.316 4.872 3.318 4.872 3.318-1.778 3.318-4.872-1.316-4.858-3.318-4.858m0 0.658c1.288 0 1.988 1.428 1.988 4.2s-0.7 4.2-1.988 4.2-2.002-1.414-2.002-4.186c0-2.786 0.714-4.214 2.002-4.214" />
      <path
         id="path158"
         d="m111.12 111.67-3.038 0.91v0.588l2.198-0.392v7.532l-0.168 0.238-1.61 0.084v0.602h4.69v-0.588l-1.512-0.07-0.168-0.21v-8.694h-0.392" />
      <path
         id="path160"
         d="m118.45 111.67c-2.002 0-3.318 1.764-3.318 4.858s1.316 4.872 3.318 4.872 3.318-1.778 3.318-4.872-1.316-4.858-3.318-4.858m0 0.658c1.288 0 1.988 1.428 1.988 4.2s-0.7 4.2-1.988 4.2-2.002-1.414-2.002-4.186c0-2.786 0.714-4.214 2.002-4.214" />
      <path
         id="path162"
         d="m126.7 111.67-3.038 0.91v0.588l2.198-0.392v7.532l-0.168 0.238-1.61 0.084v0.602h4.69v-0.588l-1.512-0.07-0.168-0.21v-8.694h-0.392" />
      <path
         id="path164"
         d="m134.03 111.67c-2.002 0-3.318 1.764-3.318 4.858s1.316 4.872 3.318 4.872 3.318-1.778 3.318-4.872-1.316-4.858-3.318-4.858m0 0.658c1.288 0 1.988 1.428 1.988 4.2s-0.7 4.2-1.988 4.2-2.002-1.414-2.002-4.186c0-2.786 0.71401-4.214 2.002-4.214" />
      <path
         id="path166"
         d="m141.83 111.67c-2.002 0-3.318 1.764-3.318 4.858s1.316 4.872 3.318 4.872 3.318-1.778 3.318-4.872-1.316-4.858-3.318-4.858m0 0.658c1.288 0 1.988 1.428 1.988 4.2s-0.7 4.2-1.988 4.2-2.002-1.414-2.002-4.186c0-2.786 0.71401-4.214 2.002-4.214" />
      <path
         id="path168"
         d="m40.517 129.17c-2.002 0-3.318 1.764-3.318 4.858s1.316 4.872 3.318 4.872 3.318-1.778 3.318-4.872-1.316-4.858-3.318-4.858m0 0.658c1.288 0 1.988 1.428 1.988 4.2s-0.7 4.2-1.988 4.2-2.002-1.414-2.002-4.186c0-2.786 0.714-4.214 2.002-4.214" />
      <path
         id="path170"
         d="m48.772 129.17-3.038 0.91v0.588l2.198-0.392v7.532l-0.168 0.238-1.61 0.084v0.602h4.69v-0.588l-1.512-0.07-0.168-0.21v-8.694h-0.392" />
      <path
         id="path172"
         d="m56.565 129.17-3.038 0.91v0.588l2.198-0.392v7.532l-0.168 0.238-1.61 0.084v0.602h4.69v-0.588l-1.512-0.07-0.168-0.21v-8.694h-0.392" />
      <path
         id="path174"
         d="m63.896 129.17c-2.002 0-3.318 1.764-3.318 4.858s1.316 4.872 3.318 4.872 3.318-1.778 3.318-4.872-1.316-4.858-3.318-4.858m0 0.658c1.288 0 1.988 1.428 1.988 4.2s-0.7 4.2-1.988 4.2-2.002-1.414-2.002-4.186c0-2.786 0.714-4.214 2.002-4.214" />
      <path
         id="path176"
         d="m72.151 129.17-3.038 0.91v0.588l2.198-0.392v7.532l-0.168 0.238-1.61 0.084v0.602h4.69v-0.588l-1.512-0.07-0.168-0.21v-8.694h-0.392" />
      <path
         id="path178"
         d="m79.482 129.17c-2.002 0-3.318 1.764-3.318 4.858s1.316 4.872 3.318 4.872 3.318-1.778 3.318-4.872-1.316-4.858-3.318-4.858m0 0.658c1.288 0 1.988 1.428 1.988 4.2s-0.7 4.2-1.988 4.2-2.002-1.414-2.002-4.186c0-2.786 0.714-4.214 2.002-4.214" />
      <path
         id="path180"
         d="m87.737 129.17-3.038 0.91v0.588l2.198-0.392v7.532l-0.168 0.238-1.61 0.084v0.602h4.69v-0.588l-1.512-0.07-0.168-0.21v-8.694h-0.392" />
      <path
         id="path182"
         d="m95.068 129.17c-2.002 0-3.318 1.764-3.318 4.858s1.316 4.872 3.318 4.872 3.318-1.778 3.318-4.872-1.316-4.858-3.318-4.858m0 0.658c1.288 0 1.988 1.428 1.988 4.2s-0.7 4.2-1.988 4.2-2.002-1.414-2.002-4.186c0-2.786 0.714-4.214 2.002-4.214" />
      <path
         id="path184"
         d="m102.86 129.17c-2.002 0-3.318 1.764-3.318 4.858s1.316 4.872 3.318 4.872 3.318-1.778 3.318-4.872-1.316-4.858-3.318-4.858m0 0.658c1.288 0 1.988 1.428 1.988 4.2s-0.7 4.2-1.988 4.2-2.002-1.414-2.002-4.186c0-2.786 0.714-4.214 2.002-4.214" />
      <path
         id="path186"
         d="m111.12 129.17-3.038 0.91v0.588l2.198-0.392v7.532l-0.168 0.238-1.61 0.084v0.602h4.69v-0.588l-1.512-0.07-0.168-0.21v-8.694h-0.392" />
      <path
         id="path188"
         d="m118.45 129.17c-2.002 0-3.318 1.764-3.318 4.858s1.316 4.872 3.318 4.872 3.318-1.778 3.318-4.872-1.316-4.858-3.318-4.858m0 0.658c1.288 0 1.988 1.428 1.988 4.2s-0.7 4.2-1.988 4.2-2.002-1.414-2.002-4.186c0-2.786 0.714-4.214 2.002-4.214" />
      <path
         id="path190"
         d="m126.7 129.17-3.038 0.91v0.588l2.198-0.392v7.532l-0.168 0.238-1.61 0.084v0.602h4.69v-0.588l-1.512-0.07-0.168-0.21v-8.694h-0.392" />
      <path
         id="path192"
         d="m134.03 129.17c-2.002 0-3.318 1.764-3.318 4.858s1.316 4.872 3.318 4.872 3.318-1.778 3.318-4.872-1.316-4.858-3.318-4.858m0 0.658c1.288 0 1.988 1.428 1.988 4.2s-0.7 4.2-1.988 4.2-2.002-1.414-2.002-4.186c0-2.786 0.71401-4.214 2.002-4.214" />
      <path
         id="path194"
         d="m142.29 129.17-3.038 0.91v0.588l2.198-0.392v7.532l-0.168 0.238-1.61 0.084v0.602h4.69v-0.588l-1.512-0.07-0.168-0.21v-8.694h-0.392" />
    </g>
  </g>
  <path
     id="path200"
     stroke-width=".49491"
     fill="#88886e"
     d="m135.49 81.677c-11.205 0-20.23 9.0089-20.23 20.214v207.01c0 11.205 9.0243 20.23 20.23 20.23h207.01c11.205 0 20.214-9.0243 20.214-20.23v-207.01c0-11.205-9.0089-20.214-20.214-20.214zm93.395 38.444c48.405 0 87.644 39.238 87.644 87.644h18.822l-29.495 43.258-28.937-43.258h18.25c0-35.683-29.673-64.616-66.289-64.616-36.616 1e-5 -66.304 28.932-66.304 64.616 0 35.684 29.689 64.601 66.304 64.601v23.044c-48.405 0-87.644-39.241-87.644-87.644 0-48.404 39.238-87.644 87.644-87.644zm26.158 59.964c1.4226-0.0106 2.7282 0.46501 3.6645 1.4538l0.77331 0.81968c2.1401 2.2601 1.5008 6.3275-1.4374 9.1094l-30.747 29.092c-2.9382 2.7822-7.0159 3.2036-9.1559 0.94341l-0.0773-0.0773c-0.52684-0.26101-1.0508-0.58054-1.5466-0.9589l-20.987-16.023c-3.2168-2.4547-4.2855-6.4185-2.3973-8.8931l0.68051-0.89703c1.8882-2.4744 6.0008-2.4857 9.2178-0.0309l18.652 14.244 27.854-26.385c1.6527-1.565 3.6768-2.3836 5.5059-2.3973z" />
</svg>
