<?xml version="1.0" encoding="UTF-8" standalone="no"?>
<svg
   xmlns:dc="http://purl.org/dc/elements/1.1/"
   xmlns:cc="http://creativecommons.org/ns#"
   xmlns:rdf="http://www.w3.org/1999/02/22-rdf-syntax-ns#"
   xmlns:svg="http://www.w3.org/2000/svg"
   xmlns="http://www.w3.org/2000/svg"
   height="401.22452"
   width="465.63098"
   viewBox="0 0 465.63098 401.22452"
   version="1.1"
   id="svg8">
  <metadata
     id="metadata14">
    <rdf:RDF>
      <cc:Work
         rdf:about="">
        <dc:format>image/svg+xml</dc:format>
        <dc:type
           rdf:resource="http://purl.org/dc/dcmitype/StillImage" />
        <dc:title></dc:title>
      </cc:Work>
    </rdf:RDF>
  </metadata>
  <defs
     id="defs12">
    <linearGradient
       id="linearGradient843"
       x1="338.67001"
       x2="66.212997"
       y1="371.07999"
       y2="136.09"
       gradientTransform="matrix(0.49491424,0,0,0.49491424,35.81165,16.741941)"
       gradientUnits="userSpaceOnUse">
      <stop
         stop-color="#7399ab"
         offset="0"
         id="stop4" />
      <stop
         stop-color="#fffeff"
         offset="1"
         id="stop6" />
    </linearGradient>
  </defs>
  <path
     style="fill:#00ff00;stroke-width:1.00445402"
     d="M 0,0 H 465.63098 V 401.22452 H 0 Z"
     id="path11" />
  <g
     transform="translate(-612.06545,-173.75217)"
     id="g6">
    <path
       style="fill:#c2ab7a"
       d="m 731.97,207.13 c -6.4106,7e-4 -13.78,-0.01 -22.281,0 l -27.907,0.3103 c -33.052,0.38 -35.684,0.071 -37.749,8.0945 -0.74313,2.0746 -2.197,4.954 -3.2188,6.2657 -1.7923,2.3008 -1.875,7.8495 -1.875,160.48 0,87.009 0.31952,158.51 0.6875,158.87 0.36798,0.36 92.956,0.5451 205.75,0.4063 l 205.06,-0.25 0.2813,-152.72 c 0.2455,-148.06 0.1884,-152.76 -1.625,-154.5 -1.0287,-0.9857 -2.4309,-3.4774 -3.0938,-5.5313 -0.6629,-2.0539 -2.4023,-4.6761 -3.875,-5.8437 -2.619,-2.077 -3.2547,-2.1144 -29.969,-1.625 -75.333,0.4671 -148.74,1.1489 -228.44,0.7031 -2.7526,-0.9083 -3.916,-2.088 -5.8438,-6.2657 -3.5538,-7.701 -1.0317,-8.4104 -45.906,-8.4048 z"
       id="path2" />
    <path
       style="fill:#d2bb89"
       d="m 792.83,240.58 c -17.018,0 -23.375,5.7326 -29.982,19.395 -28.486,0.3177 -98.985,0.4485 -104.08,0.4485 -5.095,0 -18.406,8.2154 -18.406,18.406 v 262.78 h 409.03 v -282.63 c 0,-10.191 -8.2153,-18.406 -18.406,-18.406 z"
       id="path4" />
  </g>
  <path
     style="fill:#00ff00;stroke-width:0.50100607"
     d="M 129.3168,121.52801 H 340.71049 V 341.3966 H 129.3168 Z"
     id="path11-0" />
  <path
     style="fill:#88886e;fill-opacity:1;stroke-width:0.49491423"
     d="m 129.3168,102.88394 c -11.20536,0 -20.22962,9.00893 -20.22962,20.21428 v 207.01273 c 0,11.20535 9.02426,20.22962 20.22962,20.22962 h 207.01273 c 11.20535,0 20.21427,-9.02427 20.21427,-20.22962 V 123.09822 c 0,-11.20535 -9.00892,-20.21428 -20.21427,-20.21428 z m 93.39526,38.44395 c 48.4046,0 87.64437,39.23779 87.64437,87.64436 h 18.82208 l -29.49491,43.25848 -28.93714,-43.25848 h 18.24996 c 0,-35.68282 -29.67258,-64.616 -66.28881,-64.616 -36.61574,1e-5 -66.30366,28.9317 -66.30366,64.616 0,35.68431 29.68891,64.60116 66.30366,64.60116 v 23.0442 c -48.40459,0 -87.64436,-39.24076 -87.64436,-87.64437 0,-48.4036 39.23779,-87.64436 87.64436,-87.64436 z m 26.1582,59.96381 c 1.42263,-0.0106 2.72822,0.46501 3.66449,1.45381 l 0.77331,0.81968 c 2.14011,2.26012 1.50078,6.32748 -1.43738,9.10939 l -30.74655,29.09155 c -2.93816,2.78216 -7.0159,3.20358 -9.15591,0.94341 l -0.0773,-0.0773 c -0.52684,-0.26101 -1.0508,-0.58054 -1.54661,-0.9589 l -20.98736,-16.02288 c -3.2168,-2.45472 -4.28547,-6.41854 -2.39727,-8.89311 l 0.68051,-0.89703 c 1.88824,-2.47443 6.00083,-2.48566 9.21778,-0.0309 l 18.65232,14.24412 27.85427,-26.38487 c 1.65272,-1.56496 3.67682,-2.3836 5.50592,-2.39726 z"
     id="path13" />
</svg>
