<?xml version="1.0" encoding="UTF-8" standalone="no"?>
<svg
   xmlns:dc="http://purl.org/dc/elements/1.1/"
   xmlns:cc="http://creativecommons.org/ns#"
   xmlns:rdf="http://www.w3.org/1999/02/22-rdf-syntax-ns#"
   xmlns:svg="http://www.w3.org/2000/svg"
   xmlns="http://www.w3.org/2000/svg"
   height="835.59998"
   width="872.02002"
   id="svg23"
   viewBox="0 0 890 853"
   version="1.1">
  <metadata
     id="metadata2">
    <rdf:RDF>
      <cc:Work
         rdf:about="">
        <dc:format>image/svg+xml</dc:format>
        <dc:type
           rdf:resource="http://purl.org/dc/dcmitype/StillImage" />
        <dc:title></dc:title>
      </cc:Work>
    </rdf:RDF>
  </metadata>
  <defs
     id="defs9" />
  <path
     d="M 8.9362111,8.9020622 H 880.7562 V 844.30206 H 8.9362111 Z"
     id="path11"
     style="fill:#00ff00;stroke-width:1.98319995" />
  <g
     style="stroke-width:3.5072999"
     id="g19"
     transform="matrix(1.2219,0,0,1.2219,1145.2,-244)">
    <path
       id="path13"
       d="m -439.51,233.57 c -3.4053,0.10836 -5.354,1.4025 -6.4141,4.7774 -1.908,6.0642 -4.4741,14.395 -6.9082,22.486 -1.0732,3.5669 -5.2545,4.0918 -10.961,4.0918 -5.7064,0 -9.8912,-0.52838 -10.961,-4.0918 -2.4306,-8.0949 -5.0006,-16.426 -6.9121,-22.486 -1.4134,-4.4999 -4.4054,-5.2884 -10.322,-4.5098 -5.9169,0.7786 -8.5958,2.3287 -8.8027,7.0391 -0.27358,6.3518 -0.59708,15.064 -0.84961,23.51 -0.11574,3.7213 -4.0193,5.3129 -9.5293,6.793 -5.51,1.4766 -9.691,2.0444 -11.645,-1.1191 -4.4473,-7.1865 -9.0831,-14.569 -12.492,-19.932 -2.5358,-3.9773 -5.6271,-3.9669 -11.141,-1.6836 -5.5139,2.2833 -7.7019,4.475 -6.6777,9.0801 1.3784,6.2045 3.3147,14.703 5.2578,22.928 0.85229,3.623 -2.505,6.1724 -7.4434,9.0274 -4.9418,2.8515 -8.8299,4.4869 -11.541,1.9336 -6.1518,-5.7906 -12.539,-11.725 -17.225,-16.018 -3.4758,-3.1881 -6.4604,-2.3778 -11.195,1.2559 -4.7349,3.6336 -6.2831,6.3158 -4.1016,10.5 2.9356,5.6363 7.0118,13.346 11.014,20.785 1.7677,3.2793 -0.81617,6.6111 -4.8496,10.645 -4.0334,4.0334 -7.3726,6.6177 -10.648,4.8535 -7.4425,-4.0018 -15.149,-8.0765 -20.789,-11.016 -4.1772,-2.178 -6.8528,-0.62553 -10.486,4.1094 -3.6301,4.7349 -4.4342,7.7274 -1.2461,11.203 4.3,4.6823 10.227,11.073 16.021,17.229 2.5534,2.7077 0.91941,6.5972 -1.9355,11.539 -2.855,4.9418 -5.4004,8.2976 -9.0234,7.4453 -8.2282,-1.9396 -16.723,-3.8833 -22.928,-5.2617 -4.6016,-1.0206 -6.787,1.172 -9.0703,6.6856 -2.2797,5.5135 -2.28,8.6103 1.6973,11.143 5.3592,3.4126 12.744,8.0504 19.934,12.494 3.1671,1.9571 2.5903,6.1365 1.1172,11.646 -1.4801,5.51 -3.0721,9.4151 -6.7969,9.5274 -8.4456,0.25604 -17.158,0.57799 -23.506,0.85156 -4.7103,0.20694 -6.2507,2.8859 -7.0293,8.8027 -0.77863,5.9204 0.0254,8.9092 4.5254,10.326 6.0642,1.908 14.393,4.4796 22.484,6.9102 3.5669,1.0697 4.0937,5.2526 4.0937,10.959 0,5.7064 -0.52682,9.8912 -4.0937,10.961 -8.0949,2.4306 -16.424,4.9987 -22.484,6.9102 -4.4999,1.417 -5.2884,4.4054 -4.5098,10.322 0.77863,5.9168 2.3287,8.5993 7.0391,8.8027 6.3518,0.27708 15.064,0.59903 23.51,0.85156 3.7213,0.11223 5.3164,4.0189 6.793,9.5254 1.4766,5.51 2.048,9.6913 -1.1191,11.648 -7.1865,4.4438 -14.569,9.0815 -19.932,12.494 -3.9773,2.5323 -3.9664,5.6252 -1.6797,11.139 2.3499,5.4714 4.5246,7.646 9.1191,6.6289 l -0.043,0.0566 c 6.208,-1.3819 14.707,-3.3222 22.928,-5.2617 3.6231,-0.8558 6.1759,2.5051 9.0273,7.4434 2.8479,4.9418 4.4869,8.8314 1.9336,11.539 -5.7871,6.1518 -11.723,12.541 -16.016,17.227 -3.1881,3.4722 -2.3781,6.462 1.252,11.193 3.6336,4.7349 6.3177,6.2815 10.502,4.1035 5.6363,-2.9392 13.344,-7.0122 20.783,-11.018 3.2794,-1.7607 6.6111,0.82051 10.645,4.8574 4.0334,4.0369 6.6201,7.3652 4.8594,10.645 -4.0054,7.439 -8.0819,15.145 -11.018,20.785 -2.178,4.1842 -0.62355,6.8563 4.1113,10.486 4.7349,3.6336 7.727,4.4342 11.199,1.2461 4.6858,-4.2965 11.075,-10.227 17.227,-16.018 2.7111,-2.5534 6.5972,-0.91944 11.539,1.9355 4.9418,2.8549 8.2992,5.4039 7.4434,9.0234 -1.9396,8.2246 -3.8794,16.727 -5.2578,22.932 -1.0241,4.6016 1.172,6.7827 6.6855,9.0625 5.51,2.2868 8.6103,2.2824 11.143,-1.6914 3.4161,-5.3627 8.0484,-12.749 12.492,-19.936 1.9606,-3.1636 6.138,-2.5953 11.645,-1.1152 5.51,1.4731 9.4171,3.0698 9.5293,6.791 0.25253,8.4456 0.57643,17.162 0.85351,23.51 0.20342,4.7138 2.8863,6.2472 8.8066,7.0293 5.9204,0.77863 8.9053,-0.0287 10.322,-4.5215 1.9115,-6.0642 4.478,-14.395 6.9121,-22.49 1.0697,-3.5634 5.2545,-4.0957 10.961,-4.0957 5.7029,0 9.8822,0.53227 10.959,4.0957 2.4306,8.0949 4.9982,16.43 6.9062,22.49 1.4169,4.4929 4.4089,5.288 10.322,4.5059 5.9204,-0.7821 8.6013,-2.3272 8.8047,-7.041 0.27358,-6.3518 0.60295,-15.062 0.85547,-23.508 0.10873,-3.7248 4.0158,-5.3164 9.5293,-6.793 5.5065,-1.4801 9.6875,-2.0484 11.645,1.1152 4.4438,7.19 9.0761,14.569 12.492,19.936 2.5288,3.9808 5.6252,3.9669 11.139,1.6836 5.51,-2.2833 7.6984,-4.475 6.6777,-9.0801 -1.3784,-6.208 -3.3202,-14.703 -5.2598,-22.932 -0.85579,-3.6195 2.5035,-6.1716 7.4453,-9.0195 4.9383,-2.855 8.831,-4.4858 11.535,-1.9395 6.1554,5.7941 12.543,11.729 17.229,16.021 3.4757,3.1846 6.46,2.3777 11.191,-1.2559 4.7384,-3.6336 6.2816,-6.3173 4.1035,-10.498 -2.9356,-5.6363 -7.0102,-13.345 -11.016,-20.787 -1.7606,-3.2794 0.8205,-6.6166 4.8574,-10.646 4.0334,-4.0334 7.3687,-6.6177 10.645,-4.8535 7.4426,4.0018 15.149,8.0784 20.785,11.018 4.1842,2.178 6.8562,0.62315 10.486,-4.1152 3.6371,-4.7349 4.4377,-7.7254 1.2461,-11.201 -4.2965,-4.6858 -10.229,-11.073 -16.016,-17.225 -2.5568,-2.7077 -0.92135,-6.6008 1.9336,-11.539 2.848,-4.9383 5.4043,-8.2996 9.0273,-7.4473 8.2212,1.9431 16.723,3.8834 22.928,5.2617 4.6016,1.0206 6.7827,-1.172 9.0625,-6.6855 2.2868,-5.5135 2.2824,-8.6103 -1.6914,-11.143 -5.3627,-3.4126 -12.749,-8.0484 -19.936,-12.492 -3.1636,-1.9571 -2.5953,-6.1384 -1.1152,-11.648 1.4731,-5.51 3.0697,-9.4132 6.791,-9.5254 8.4456,-0.25253 17.162,-0.57994 23.51,-0.85351 4.7138,-0.20343 6.2452,-2.8859 7.0274,-8.8027 0.78214,-5.9168 -0.0231,-8.9092 -4.5195,-10.326 -6.0642,-1.908 -14.395,-4.4741 -22.49,-6.9082 -3.5634,-1.0732 -4.0918,-5.258 -4.0918,-10.961 0,-5.7064 0.52837,-9.8912 4.0918,-10.961 8.0949,-2.4306 16.43,-5.0002 22.49,-6.9082 4.4964,-1.417 5.288,-4.4054 4.5059,-10.322 -0.77864,-5.9168 -2.3291,-8.5978 -7.043,-8.8047 -6.3518,-0.27358 -15.06,-0.59904 -23.506,-0.85157 -3.7213,-0.11223 -5.3164,-4.0154 -6.793,-9.5254 -1.4766,-5.51 -2.0484,-9.6913 1.1152,-11.648 7.19,-4.4438 14.569,-9.0796 19.936,-12.492 3.9808,-2.5323 3.9668,-5.6271 1.6836,-11.141 -2.2833,-5.5135 -4.475,-7.7019 -9.0801,-6.6777 -6.208,1.3784 -14.703,3.3186 -22.932,5.2617 -3.6196,0.85579 -6.1735,-2.5035 -9.0215,-7.4453 -2.8549,-4.9418 -4.4858,-8.8279 -1.9394,-11.539 5.7941,-6.1518 11.728,-12.543 16.021,-17.229 3.1846,-3.4758 2.3797,-6.4604 -1.2539,-11.195 -3.6336,-4.7349 -6.3173,-6.2815 -10.498,-4.1035 -5.6363,2.9356 -13.347,7.0138 -20.789,11.016 -3.2793,1.7642 -6.6111,-0.8201 -10.645,-4.8535 -4.0334,-4.0334 -6.6177,-7.3687 -4.8535,-10.645 4.0019,-7.4426 8.0765,-15.149 11.016,-20.785 2.1781,-4.1807 0.62551,-6.8567 -4.1094,-10.49 -4.7384,-3.6336 -7.7278,-4.4323 -11.207,-1.2441 -4.6858,4.2965 -11.067,10.227 -17.223,16.018 -2.7076,2.5534 -6.6008,0.91788 -11.539,-1.9336 -4.9383,-2.8514 -8.2996,-5.4043 -7.4473,-9.0273 1.943,-8.2247 3.8833,-16.724 5.2617,-22.932 1.0206,-4.6016 -1.172,-6.7831 -6.6856,-9.0664 -5.5136,-2.2833 -8.6103,-2.2785 -11.143,1.6953 -3.4161,5.3627 -8.0519,12.745 -12.492,19.932 -1.9571,3.1671 -6.1349,2.5957 -11.648,1.1191 -5.5065,-1.4766 -9.4132,-3.0682 -9.5254,-6.793 -0.25253,-8.4456 -0.57994,-17.158 -0.85352,-23.51 -0.20693,-4.7103 -2.8859,-6.2468 -8.8027,-7.0254 -1.4801,-0.19466 -2.777,-0.29003 -3.9121,-0.25391 z m -24.203,57.518 a 156.88,156.88 0 0 1 156.88,156.88 156.88,156.88 0 0 1 -156.88,156.88 156.88,156.88 0 0 1 -156.88,-156.88 156.88,156.88 0 0 1 156.88,-156.88 z" />
    <path
       id="path15"
       d="m -463.75,296.11 c -83.871,0 -151.87,67.993 -151.87,151.87 0,83.895 67.972,151.87 151.87,151.87 83.874,0 151.87,-67.997 151.87,-151.87 0,-83.871 -67.997,-151.87 -151.87,-151.87 z m 0,113.25 a 38.616,38.616 0 0 1 38.615,38.615 38.616,38.616 0 0 1 -38.615,38.615 38.616,38.616 0 0 1 -38.615,-38.615 38.616,38.616 0 0 1 38.615,-38.615 z" />
    <path
       id="path17"
       d="m -744.56,503.96 c -0.6323,-6.1e-4 -1.3045,0.02 -2.0195,0.0586 -5.6152,0.30163 -8.5935,1.6694 -9.1406,6.0781 -0.89086,7.1585 -2.098,14.054 -3.1992,22.959 -0.65587,5.268 -1.936,7.3526 -8.4141,9.1133 -6.4815,1.7607 -8.6373,0.61657 -11.871,-3.5957 -5.4644,-7.1199 -9.992,-12.453 -14.387,-18.174 -2.7112,-3.5284 -6.3936,-3.0493 -10.971,-0.63282 -4.9734,2.6235 -7.2957,4.8293 -6.1172,9.1152 1.9185,6.955 3.4431,13.785 5.8281,22.434 1.41,5.1207 1.0284,7.5296 -4.2852,11.637 -5.3136,4.1071 -7.7441,3.8758 -12.346,1.2207 -7.7687,-4.4858 -13.998,-7.6831 -20.244,-11.285 -3.8511,-2.2201 -6.5489,-0.64966 -10.379,3.6152 -3.7529,4.1842 -4.8889,7.2524 -2.1602,10.76 4.4262,5.6924 8.4552,11.416 13.969,18.494 3.2618,4.1913 3.8316,6.5708 0.49609,12.396 -3.3354,5.8257 -5.6715,6.5406 -10.939,5.8496 -8.8946,-1.1679 -15.868,-1.7436 -23.023,-2.6836 -4.4052,-0.57517 -6.4631,1.9533 -8.1992,7.3125 -1.7361,5.3487 -1.7495,8.5759 2.1191,10.771 6.2711,3.5635 12.181,7.3124 19.984,11.742 4.6156,2.6235 6.046,4.6013 5.1973,11.262 -0.85228,6.6569 -2.7395,8.2115 -7.8672,9.5898 -8.6666,2.3219 -15.327,4.4685 -22.293,6.3379 -4.293,1.1504 -5.088,4.1702 -4.7793,9.8906 0.30163,5.6152 1.6698,8.5896 6.082,9.1367 7.1584,0.89785 14.05,2.0968 22.955,3.2051 5.268,0.64886 7.3507,1.9286 9.1113,8.4102 1.7642,6.4815 0.61853,8.6393 -3.5938,11.873 -7.1199,5.4609 -12.455,9.9886 -18.176,14.387 -3.5248,2.7076 -3.0474,6.3968 -0.63086,10.967 2.6235,4.9734 4.8297,7.2956 9.1191,6.1172 6.9515,-1.9115 13.779,-3.4361 22.432,-5.8281 5.1172,-1.41 7.5281,-1.021 11.639,4.2891 4.1036,5.3101 3.8723,7.7476 1.2207,12.346 -4.4894,7.7652 -7.689,13.994 -11.291,20.24 -2.2201,3.851 -0.64615,6.5489 3.6152,10.379 4.1842,3.7598 7.2583,4.8962 10.766,2.1641 5.6924,-4.4298 11.413,-8.4533 18.494,-13.967 4.1878,-3.2688 6.5654,-3.8296 12.395,-0.49414 5.8221,3.3285 6.5406,5.6636 5.8496,10.932 -1.1715,8.8981 -1.7436,15.87 -2.6836,23.021 -0.57871,4.4052 1.9428,6.3376 7.3125,8.207 5.3066,1.8448 8.5755,1.744 10.768,-2.1211 3.567,-6.2746 7.3144,-12.177 11.744,-19.98 2.6235,-4.6227 4.6009,-6.055 11.258,-5.1992 6.6604,0.84874 8.2134,2.7321 9.5918,7.8633 2.3219,8.6631 4.4685,15.331 6.3379,22.297 1.1504,4.2859 4.1702,5.0829 9.8906,4.7812 5.6152,-0.30865 8.5904,-1.6698 9.1445,-6.082 0.89087,-7.1584 2.089,-14.058 3.1973,-22.963 0.64885,-5.268 1.9306,-7.3506 8.4121,-9.1113 6.4815,-1.7606 8.6374,-0.61857 11.871,3.5938 5.4679,7.1198 9.9885,12.455 14.387,18.176 2.7076,3.5284 6.3987,3.0517 10.969,0.63867 4.9734,-2.6305 7.3007,-4.8367 6.1152,-9.1191 -1.9115,-6.9585 -3.4354,-13.781 -5.8203,-22.434 -1.417,-5.1242 -1.0288,-7.5332 4.2812,-11.637 5.3171,-4.1106 7.7476,-3.8792 12.346,-1.2207 7.7722,4.4824 13.994,7.6812 20.248,11.283 3.851,2.2202 6.5481,0.65122 10.371,-3.6172 3.7599,-4.1772 4.8962,-7.2524 2.1641,-10.76 -4.4297,-5.6924 -8.4533,-11.416 -13.967,-18.494 -3.2688,-4.1912 -3.8296,-6.5685 -0.49414,-12.391 3.3355,-5.8292 5.6726,-6.5425 10.934,-5.8516 8.8981,1.1644 15.87,1.7397 23.021,2.6797 4.4122,0.5752 6.4674,-1.9529 8.207,-7.3086 1.7361,-5.3487 1.742,-8.5763 -2.123,-10.775 -6.2676,-3.5634 -12.177,-7.3089 -19.98,-11.742 -4.6156,-2.6235 -6.053,-4.6048 -5.1973,-11.262 0.84878,-6.6569 2.7321,-8.2095 7.8633,-9.5879 8.6631,-2.3218 15.329,-4.4615 22.295,-6.3379 4.293,-1.1504 5.0899,-4.1702 4.7812,-9.8906 l -0.01,0.0879 c -0.31566,-5.6117 -1.6842,-8.5582 -6.0684,-9.2246 -7.1584,-0.89788 -14.05,-2.1022 -22.955,-3.207 -5.275,-0.65233 -7.3514,-1.9325 -9.1191,-8.4141 -1.7607,-6.4815 -0.61662,-8.6373 3.5957,-11.871 7.1268,-5.4609 12.454,-9.9885 18.182,-14.387 3.5214,-2.7077 3.0439,-6.3952 0.63086,-10.969 -2.6305,-4.9734 -4.8367,-7.2937 -9.1191,-6.1152 -6.9515,1.915 -13.781,3.4431 -22.434,5.8281 -5.1172,1.41 -7.5332,1.0245 -11.637,-4.2891 -4.1106,-5.3101 -3.8792,-7.7441 -1.2207,-12.346 4.4894,-7.7652 7.682,-13.994 11.291,-20.24 2.2202,-3.8511 0.6442,-6.5489 -3.6172,-10.379 -4.1842,-3.7564 -7.2603,-4.8893 -10.768,-2.1641 -5.6924,4.4297 -11.409,8.4588 -18.494,13.969 -4.1842,3.2653 -6.5615,3.83 -12.391,0.49804 -5.8292,-3.3354 -6.5406,-5.6695 -5.8496,-10.938 1.1714,-8.8981 1.7397,-15.872 2.6797,-23.023 0.57521,-4.4052 -1.9478,-6.3368 -7.3106,-8.1992 -5.3136,-1.8484 -8.5743,-1.7479 -10.773,2.1172 -3.5634,6.2746 -7.3089,12.181 -11.742,19.988 -2.6165,4.6156 -4.5998,6.0476 -11.264,5.1953 -6.6569,-0.85228 -8.2095,-2.736 -9.5879,-7.8672 -2.3218,-8.6631 -4.4626,-15.327 -6.332,-22.293 -1.0127,-3.7533 -3.4509,-4.8317 -7.877,-4.8359 z m 8.5684,115.09 a 38.616,38.616 0 0 1 38.615,38.615 38.616,38.616 0 0 1 -38.615,38.615 38.616,38.616 0 0 1 -38.615,-38.615 38.616,38.616 0 0 1 38.615,-38.615 z" />
  </g>
  <path
     style="fill:#aaaaaa;stroke-width:1.07379997"
     id="path21"
     d="m 212.79,155.93 c -24.311,0 -43.89,19.546 -43.89,43.857 v 449.13 c 0,24.311 19.579,43.89 43.89,43.89 h 449.13 c 24.311,0 43.857,-19.579 43.857,-43.89 v -449.13 c 0,-24.311 -19.546,-43.857 -43.857,-43.857 z m 202.63,83.408 c 105.02,-2e-5 190.15,85.13 190.15,190.15 h 40.836 l -63.992,93.853 -62.782,-93.853 h 39.595 c 0,-77.417 -64.378,-140.19 -143.82,-140.19 -79.441,10e-6 -143.85,62.77 -143.85,140.19 0,77.42 64.413,140.16 143.85,140.16 v 49.997 c -105.02,0 -190.15,-85.137 -190.15,-190.15 0,-105.02 85.13,-190.15 190.15,-190.15 z m 56.753,130.1 c 3.0865,-0.023 5.9191,1.0089 7.9505,3.1542 l 1.6777,1.7784 c 4.6432,4.9036 3.2561,13.728 -3.1185,19.764 l -66.708,63.117 c -6.3746,6.0362 -15.222,6.9505 -19.865,2.0468 l -0.16778,-0.16778 c -1.143,-0.56628 -2.2798,-1.2595 -3.3555,-2.0804 l -45.534,-34.763 c -6.9791,-5.3258 -9.2977,-13.926 -5.2011,-19.294 l 1.4764,-1.9462 c 4.0967,-5.3685 13.019,-5.3929 19.999,-0.0671 l 40.468,30.904 60.432,-57.244 c 3.5857,-3.3954 7.9772,-5.1715 11.946,-5.2011 z" />
</svg>
