<?xml version="1.0" encoding="UTF-8" standalone="no"?>
<svg
   xmlns:dc="http://purl.org/dc/elements/1.1/"
   xmlns:cc="http://creativecommons.org/ns#"
   xmlns:rdf="http://www.w3.org/1999/02/22-rdf-syntax-ns#"
   xmlns:svg="http://www.w3.org/2000/svg"
   xmlns="http://www.w3.org/2000/svg"
   height="274.40735"
   width="216.40158"
   id="svg22"
   version="1.1"
   viewBox="0 0 216.40158 274.40735">
  <metadata
     id="metadata28">
    <rdf:RDF>
      <cc:Work
         rdf:about="">
        <dc:format>image/svg+xml</dc:format>
        <dc:type
           rdf:resource="http://purl.org/dc/dcmitype/StillImage" />
        <dc:title></dc:title>
      </cc:Work>
    </rdf:RDF>
  </metadata>
  <defs
     id="defs26" />
  <g
     transform="translate(-11.428206,-12.685637)"
     style="fill:#0000ff;stroke-width:0"
     id="g8">
    <path
       id="path2"
       d="m 102.54,16.684 c -3.8233,1.1717 -7.5577,2.6582 -11.115,4.2754 l 3.4043,9.8892 c 3.4402,-1.6079 7.0514,-3.031 10.773,-4.1702 46.63,-14.297 97.068,15.131 112.62,65.85 0.19788,0.64304 0.40892,1.2899 0.59108,1.9341 l 9.0164,-3.0134 c -0.16739,-0.57291 -0.3458,-1.1304 -0.52168,-1.7047 -17.242,-56.23 -73.071,-88.91 -124.77,-73.06 z" />
    <path
       id="path4"
       d="m 107.87,42.759 c -2.8978,0.88356 -5.7327,2.0142 -8.429,3.2403 l 3.0964,9.1016 c 2.6063,-1.2211 5.3455,-2.3012 8.1696,-3.1653 35.364,-10.843 71.051,10.536 82.843,49.004 0.14803,0.48727 0.30917,0.97863 0.44879,1.4647 l 8.8942,-2.9463 c -0.12695,-0.43434 -0.26131,-0.85413 -0.39679,-1.2896 -13.074,-42.647 -55.417,-67.431 -94.626,-55.409 z" />
    <path
       id="path6"
       d="m 112.73,66.563 c -2.0534,0.62937 -4.0632,1.4321 -5.9752,2.3035 l 2.93,8.7439 c 1.847,-0.86269 3.7928,-1.6289 5.7906,-2.2444 25.519,-6.3153 45.409,5.7805 55.132,33.381 0.10638,0.34496 0.22125,0.69134 0.32053,1.0388 l 9.193,-3.01 c -0.0912,-0.31011 -0.1873,-0.61037 -0.28227,-0.91929 -9.2719,-30.244 -39.3,-47.818 -67.104,-39.291 l -0.005,-0.0026 z" />
  </g>
  <g
     transform="translate(-11.428206,-12.685637)"
     style="fill:#0000ff"
     id="g20">
    <path
       id="path10"
       d="m 55.725,208.72 c -8.2021,26.128 -15.838,52.239 -29.318,78.373 48.731,-0.0716 59.006,-0.23007 107.74,-0.30185 -8.7366,-16.822 -16.245,-35.318 -21.817,-52.143 -20.413,-3.5217 -39.108,-10.97 -56.601,-25.928 z m 3.3241,14.643 7.7291,5.3094 c -6.7528,24.332 -19.004,44.838 -28.339,52.691 7.4184,-18.292 12.983,-31.052 20.61,-58.001 z" />
    <path
       id="path12"
       d="m 12.668,78.556 c -7.2827,51.653 17.852,104.57 66.63,130.34 48.78,25.779 106.56,16.727 145.14,-18.393 L 12.668,78.553 Z m 10.854,21.557 18.367,10.315 c 0.57931,30.138 8.185,46.983 18.725,70.804 C 38.753,159.777 24.076,133.771 23.522,100.113 Z" />
    <g
       style="stroke-width:0"
       id="g18">
      <rect
         id="rect14"
         height="8.0811996"
         width="3.283"
         y="591.62"
         x="318.17999"
         transform="matrix(2.8428,1.4908,-1.4908,2.8428,100.58,-2041.7)" />
      <path
         id="path16"
         d="m 138.59,119.88 c -3.119,5.9475 -9.9866,8.4934 -15.339,5.6863 -5.3527,-2.807 -7.1636,-9.9041 -4.0446,-15.852 3.119,-5.9475 9.9867,-8.4933 15.339,-5.6863 5.3528,2.8071 7.1636,9.9041 4.0446,15.852 z" />
    </g>
  </g>
</svg>
