<?xml version="1.0" encoding="UTF-8"?>
<svg viewBox="0 0 640 384" xmlns="http://www.w3.org/2000/svg" xmlns:xlink="http://www.w3.org/1999/xlink">
 <defs>
  <linearGradient id="a">
   <stop stop-color="#d0d0d0" offset="0"/>
   <stop stop-color="#efefef" offset=".5"/>
   <stop stop-color="#dedede" offset=".75"/>
   <stop stop-color="#fff" offset="1"/>
  </linearGradient>
  <linearGradient id="b">
   <stop stop-color="#e0e6f0" offset="0"/>
   <stop stop-color="#f4f6fa" offset=".5"/>
   <stop stop-color="#cbd6e5" offset="1"/>
  </linearGradient>
  <linearGradient id="c" x1="273.36" x2="513.16" y1="165.57" y2="111.53" gradientTransform="matrix(.034144 -.82734 -.61454 -.025362 493.51 500.91)" gradientUnits="userSpaceOnUse">
   <stop stop-color="#316de5" offset="0"/>
   <stop stop-color="#a3d1f7" offset="1"/>
  </linearGradient>
  <linearGradient id="m" x1="249.12" x2="526.8" y1="249.85" y2="159.44" gradientTransform="matrix(.034144 -.82734 -.61454 -.025362 493.51 500.91)" gradientUnits="userSpaceOnUse">
   <stop stop-color="#3060dd" offset="0"/>
   <stop stop-color="#78c0e7" offset="1"/>
  </linearGradient>
  <linearGradient id="l" x1="934.39" x2="847.52" y1="566.48" y2="815.99" gradientTransform="matrix(.45026 .54856 -.54856 .45026 380.78 -597.79)" gradientUnits="userSpaceOnUse">
   <stop stop-color="#fbfbf9" offset="0"/>
   <stop stop-color="#e9edf4" offset="1"/>
  </linearGradient>
  <linearGradient id="k" x1="574.04" x2="227.91" y1="184.94" y2="176.36" gradientTransform="matrix(.034144 -.82734 -.82734 -.034144 532.7 502.53)" gradientUnits="userSpaceOnUse">
   <stop stop-color="#4e72cf" offset="0"/>
   <stop stop-color="#6495ed" offset="1"/>
  </linearGradient>
  <linearGradient id="j" x1="548.02" x2="211.16" y1="189.06" y2="228.81" gradientTransform="matrix(.034599 -.83836 -.8863 -.036578 542.62 507.05)" gradientUnits="userSpaceOnUse">
   <stop stop-color="#94a9cc" offset="0"/>
   <stop stop-color="#e8ecf5" offset=".5"/>
   <stop stop-color="#c4d2e2" offset="1"/>
  </linearGradient>
  <linearGradient id="i" x1="489.74" x2="479.73" y1="216.18" y2="488.47" gradientTransform="matrix(.034144 -.82734 -.82734 -.034144 509.54 501.58)" gradientUnits="userSpaceOnUse">
   <stop stop-color="#fff" offset="0"/>
   <stop stop-color="#fff" stop-opacity="0" offset="1"/>
  </linearGradient>
  <linearGradient id="f" x1="841.96" x2="878.83" y1="189.88" y2="110.58" gradientUnits="userSpaceOnUse" xlink:href="#a" spreadMethod="reflect"/>
  <linearGradient id="e" x1="885.91" x2="939.73" y1="120.16" y2="162.59" gradientUnits="userSpaceOnUse" xlink:href="#a" spreadMethod="reflect"/>
  <linearGradient id="d" x1="848.14" x2="904.66" y1="125.6" y2="90.245" gradientUnits="userSpaceOnUse" xlink:href="#a" spreadMethod="repeat"/>
  <linearGradient id="h" x1="280.62" x2="310.53" y1="485.78" y2="589.82" gradientTransform="matrix(.032475 -.7869 -.70332 -.029026 439.58 483.62)" gradientUnits="userSpaceOnUse" xlink:href="#b" spreadMethod="reflect"/>
  <linearGradient id="g" x1="565.69" x2="196.97" y1="394.45" y2="404.45" gradientTransform="matrix(.034144 -.82734 -.82734 -.034144 509.54 501.58)" gradientUnits="userSpaceOnUse" xlink:href="#b"/>
 </defs>
 <path d="m397.25 363.17c-3.327-0.3399-4.3861-6.2098-8.1025-5.1821-109.33-13.958-209.62-25.066-314.76-41.528-17.284-2.7063-28.793-22.554-33.708-37.49-24.276-73.773-21.07-164.73 22.752-229.91 7.5258-11.194 23.015-15.144 36.153-15.738 101.97-4.6077 195.04-7.1855 296.91-12.463 11.815-0.61211 28.704 9.4522 33.4 18.792 12.472 24.809 16.896 52.396 20.254 79.671 13.488-10.346 26.775-20.92 39.922-31.684 36.699 54.243 75.997 109.2 124.36 153.82-58.928 59.645-129.99 118.54-217.18 121.72z" fill-rule="evenodd"/>
 <path d="m417.27 189.42c-3.6498 88.436-26.256 159.41-60.648 157.99-5.485-0.22637-15.76-3.4216-15.76-3.4216s-4.768-1.5694-7.2344-1.6712c-1.0468-0.03505-2.0833-0.1969-3.1198-0.33594l-249.19-30.796c-29.064-1.1995-50.136-62.837-47.052-137.57s29.163-134.4 58.227-133.2l250.88-10.158c1.0443-0.07563 2.0912-0.08695 3.1369-0.07773 2.4664 0.10179 7.3475-1.0694 7.3475-1.0694s10.504-2.3376 15.989-2.1113c34.392 1.4194 51.074 73.988 47.425 162.42z" fill="url(#g)" fill-rule="evenodd"/>
 <path d="m86.904 46.808c-24.707-1.0197-47.14 55.842-50.074 126.92s14.738 129.6 39.445 130.62 47.14-55.842 50.074-126.92-14.738-129.6-39.445-130.62z" fill="url(#h)" fill-rule="evenodd" opacity=".6"/>
 <g fill-rule="evenodd" opacity=".5">
  <g transform="matrix(.97122 .01609 -.01609 .97122 -717.39 72.276)">
   <path d="m857.22 63.562c-7.303-0.51727-10.402-3.3959-12.379 9.2355-24.415-0.75364-26.873 1.4929-30.755 29.86 2.4578 3.4007 0.78396 7.9485-3.2749 10.35-8.458-4.8974-12.303 2.1048-13.149 9.8828-2.588 8.425-6.0241 16.704-7.7151 25.336 0.66535 6.9332 10.595-0.92051 5.9119 8.072-2.542 7.4292 0.47443 16.922 6.4372 22.351-1.9352 9.1662 6.176 25.547 24.035 35.587 4.4016-1.71 3.098-12.505 6.7816-7.0067 5.5801 5.8798-5.2038 10.69-2.8648 17.676 7.1816 6.9503 20.098-2.964 29.014-3.1137 8.7063-2.5936 16.827-7.2541 24.513-12.429 8.995 13.908 18.55 16.763 24.671 8.3929 5.762-4.8341 12.572-8.7028 17.562-14.292 4.3794-9.1646-18.111-7.0553-6.6515-14.214 3.6382-6.3366 11.521 5.2123 13.947-4.0636 1.003-6.626-6.123-14.028-5.5015-20.765 3.3796-11.887 6.5811-23.795 7.6824-36.578 4.7407-5.1069 11.004-9.7422 13.818-16.144-1.483-10.065-20.976-1.5779-23.065-11.169-5.5412-6.4472-7.4704-17.358-6.1419-25.277 3.5382-9.3904-8.6743-10.269-11.494-1.4388-3.855 4.4053-4.0687 12.404-9.6561 12.932-8.9776 0.29228-7.6285-12.751-11.769-18.531-12.545 1.963-18.817 2.2491-29.956-4.6535z" fill="#959595" fill-opacity=".5098"/>
   <path d="m868.57 84.286-42.487 9.6339-17.518 36.08-0.36161 30.701 17.094 36.621 16.143 6.9598 27.125 12.875 0.34375-15.688 10.388 8.1741 28.201-22.509 6.5134-11.219 15.621-64.134-39.629-10.344-4.9821 9.7679-16.451-26.92z" fill="url(#f)"/>
   <path d="m884.28 72.129-23.219 7.75 1.8125-2.75-38.594 1.4375-5.7187 22.156 13.594 22.844 22.687-34.281 40.875 29.281 21.438-22.125-23.594-5-9.2813-19.312zm39.281 35-4.0313 19.344c-3.7485-2.3159-7.3553-4.4484-8.8125-5.0312l7.2188 12.75-1.0625 5.2188-16.156-13.688-16.438 20.719 13.594 15 6.4062-3.8125v9.5l-4.2812 10v15.875l-18.562-7.2812-2.875 12.844 20.719 20 22.156-17.125-15.688-6.1562 20.688-19.562-18.156-20.469 12.562-7.5 1.3125 15.094 8.5625-29.281-4.375-2.8125 17.938-19.312-20.719-4.3125zm-74.281 6.4375-0.7187 15 29.312 11.438 1.4062-15-30-11.438zm-44.281 2.875-10 30.688 11.438-4.5625-5 27.438 12.594 5.125-6.875 15.594 17.844 18.562 1.75-9.125 8.25 0.5625 16.437 20-12.875-39.281-10.938 14.25 3.8125-19.969-10.719-15.719-2.3437 5.2812-9.875-23.531 4.375-1.75 6.4062 14.281 20.719-26.438-26.781 5.0938-2.5-4.375 15.719-7.125-21.438-5zm114.91 21.25 0.0938 0.15625 0.4062 4.5625-2.7187-2.3125 2.2187-2.4062zm-75.625 10.156-10 24.281 17.156 7.875 19.281-12.156-26.438-20z" fill="url(#e)"/>
   <path d="m851.01 66.429v18.562l20 8.5938 12.844-12.875-32.844-14.281zm64.281 4.2812-24.281 37.156 18.562 5.7188 11.438-11.438-7.1563-12.875 1.4375-18.562zm-82.875 24.281-24.281 25.719 35.719 20 8.5625-32.844-12.844-11.438-7.1562-1.4375zm34.313 22.875-1.4375 15.719-8.5625 12.844 17.125 5.7188 8.5625-34.281h-15.688zm-60 27.125-8.5938 17.156 11.438 22.844 28.562 2.875v-18.594l-31.406-24.281zm117.13 1.4375-37.125 12.844 35.688 22.875 1.4375-35.719zm-42.844 17.156-22.875 21.406-25.719 37.156 44.313-11.438 4.2813-47.125z" fill="url(#d)"/>
  </g>
  <g transform="matrix(.01687 .72485 -.79409 .06632 284.93 -370.85)">
   <path d="m857.22 63.562c-7.303-0.51727-10.402-3.3959-12.379 9.2355-24.415-0.75364-26.873 1.4929-30.755 29.86 2.4578 3.4007 0.78396 7.9485-3.2749 10.35-8.458-4.8974-12.303 2.1048-13.149 9.8828-2.588 8.425-6.0241 16.704-7.7151 25.336 0.66535 6.9332 10.595-0.92051 5.9119 8.072-2.542 7.4292 0.47443 16.922 6.4372 22.351-1.9352 9.1662 6.176 25.547 24.035 35.587 4.4016-1.71 3.098-12.505 6.7816-7.0067 5.5801 5.8798-5.2038 10.69-2.8648 17.676 7.1816 6.9503 20.098-2.964 29.014-3.1137 8.7063-2.5936 16.827-7.2541 24.513-12.429 8.995 13.908 18.55 16.763 24.671 8.3929 5.762-4.8341 12.572-8.7028 17.562-14.292 4.3794-9.1646-18.111-7.0553-6.6515-14.214 3.6382-6.3366 11.521 5.2123 13.947-4.0636 1.003-6.626-6.123-14.028-5.5015-20.765 3.3796-11.887 6.5811-23.795 7.6824-36.578 4.7407-5.1069 11.004-9.7422 13.818-16.144-1.483-10.065-20.976-1.5779-23.065-11.169-5.5412-6.4472-7.4704-17.358-6.1419-25.277 3.5382-9.3904-8.6743-10.269-11.494-1.4388-3.855 4.4053-4.0687 12.404-9.6561 12.932-8.9776 0.29228-7.6285-12.751-11.769-18.531-12.545 1.963-18.817 2.2491-29.956-4.6535z" fill="#959595" fill-opacity=".5098"/>
   <path d="m868.57 84.286-42.487 9.6339-17.518 36.08-0.36161 30.701 17.094 36.621 16.143 6.9598 27.125 12.875 0.34375-15.688 10.388 8.1741 28.201-22.509 6.5134-11.219 15.621-64.134-39.629-10.344-4.9821 9.7679-16.451-26.92z" fill="url(#f)"/>
   <path d="m884.28 72.129-23.219 7.75 1.8125-2.75-38.594 1.4375-5.7187 22.156 13.594 22.844 22.687-34.281 40.875 29.281 21.438-22.125-23.594-5-9.2813-19.312zm39.281 35-4.0313 19.344c-3.7485-2.3159-7.3553-4.4484-8.8125-5.0312l7.2188 12.75-1.0625 5.2188-16.156-13.688-16.438 20.719 13.594 15 6.4062-3.8125v9.5l-4.2812 10v15.875l-18.562-7.2812-2.875 12.844 20.719 20 22.156-17.125-15.688-6.1562 20.688-19.562-18.156-20.469 12.562-7.5 1.3125 15.094 8.5625-29.281-4.375-2.8125 17.938-19.312-20.719-4.3125zm-74.281 6.4375-0.7187 15 29.312 11.438 1.4062-15-30-11.438zm-44.281 2.875-10 30.688 11.438-4.5625-5 27.438 12.594 5.125-6.875 15.594 17.844 18.562 1.75-9.125 8.25 0.5625 16.437 20-12.875-39.281-10.938 14.25 3.8125-19.969-10.719-15.719-2.3437 5.2812-9.875-23.531 4.375-1.75 6.4062 14.281 20.719-26.438-26.781 5.0938-2.5-4.375 15.719-7.125-21.438-5zm114.91 21.25 0.0938 0.15625 0.4062 4.5625-2.7187-2.3125 2.2187-2.4062zm-75.625 10.156-10 24.281 17.156 7.875 19.281-12.156-26.438-20z" fill="url(#e)"/>
   <path d="m851.01 66.429v18.562l20 8.5938 12.844-12.875-32.844-14.281zm64.281 4.2812-24.281 37.156 18.562 5.7188 11.438-11.438-7.1563-12.875 1.4375-18.562zm-82.875 24.281-24.281 25.719 35.719 20 8.5625-32.844-12.844-11.438-7.1562-1.4375zm34.313 22.875-1.4375 15.719-8.5625 12.844 17.125 5.7188 8.5625-34.281h-15.688zm-60 27.125-8.5938 17.156 11.438 22.844 28.562 2.875v-18.594l-31.406-24.281zm117.13 1.4375-37.125 12.844 35.688 22.875 1.4375-35.719zm-42.844 17.156-22.875 21.406-25.719 37.156 44.313-11.438 4.2813-47.125z" fill="url(#d)"/>
  </g>
 </g>
 <path d="m417.71 172.6c-29.897 15.365-65.426 22.158-102.42 17.347-83.405-10.847-145.6-76.856-148.34-152.55l179.57-7.2219c2.4664 0.10179 7.3475-1.0694 7.3475-1.0694s10.504-2.3376 15.989-2.1113c32.183 1.3282 48.842 64.971 47.86 145.61z" fill="url(#i)" fill-rule="evenodd"/>
 <path d="m442.54 190.46c-3.3314 80.722-24.814 146.54-50.188 154.6-25.459-1.7105-43.207-72.377-39.66-158.31s27.056-154.87 52.569-154.48c24.624 10.127 40.611 77.464 37.28 158.19z" fill="url(#j)" fill-rule="evenodd"/>
 <path d="m442.87 190.48c-3.5165 85.207-25.808 153.57-49.755 152.59-0.11328-0.00467-0.22208-0.03197-0.33504-0.03972 23.706-8.0131 43.907-73.005 47.194-152.67s-11.49-146.07-34.455-156.01c0.11321 0.00158 0.22389-0.01666 0.33717-0.01198 23.947 0.98829 40.53 70.935 37.014 156.14z" fill="url(#k)" fill-rule="evenodd"/>
 <path d="m284.11 186.09-75.486 35.144 17.778-29.226-132.3-9.7718s-8.2354-1.2844-7.5373-10.736c0.72483-9.8136 9.0329-9.5126 9.0329-9.5126l132.3 9.7718-13.291-31.521 69.504 45.852z" fill="#278813" fill-rule="evenodd" opacity=".8" stroke="#2a6a47" stroke-width="4.3225"/>
 <path d="m404.52 28.426-0.19993 5.955c0.39674-0.03237 0.79206-0.04814 1.1898-0.0426 22.966 9.9392 37.751 76.345 34.463 156.01s-23.499 144.66-47.206 152.68c-1.1327-0.07778-2.3549-0.32066-3.4528-0.70197l-0.29901 6.3456c0.72486 0.14865 1.5686 0.1431 2.3067 0.17356 25.546 1.0543 49.248-69.859 52.898-158.29 3.6461-88.347-14.196-160.92-39.7-162.12z" fill="url(#c)" fill-rule="evenodd"/>
 <path d="m487.21 97.168c-39.857 34.491-115.82 92.629-162.84 98.071 14.985 60.528 37.527 111.71 75.887 159.25 73.671 1.9018 159.23-70.416 204.15-112.86-2.1236-1.915-4.2321-3.8803-6.3398-5.8712l-2.7577 2.7226c0.33486 1.2399 0.03141 2.5987-0.94935 3.5624-1.447 1.4219-3.7744 1.4083-5.1962-0.03864s-1.4084-3.7744 0.03865-5.1962c0.98846-0.97128 2.3745-1.2431 3.6156-0.8733l2.6689-2.621c-1.5303-1.4714-3.0666-2.963-4.5869-4.4696l-2.5898 2.2979c0.27544 1.2544-0.07689 2.5998-1.1023 3.5158-1.5132 1.3513-3.8375 1.2387-5.1888-0.27428s-1.2217-3.8515 0.2914-5.2029c1.0336-0.92306 2.4235-1.1254 3.6456-0.69699l2.4184-2.1572c-1.6158-1.6271-3.2219-3.2722-4.8248-4.9342l-2.7006 2.3028c0.24434 1.2608-0.1623 2.5991-1.2101 3.4894-1.5459 1.3137-3.8458 1.1326-5.1594-0.41319s-1.1296-3.8769 0.4163-5.1906c1.056-0.89742 2.4564-1.0588 3.6676-0.60028l2.5291-2.1621c-1.9444-2.0452-3.864-4.1222-5.7864-6.2107l-2.9032 2.4404c0.24439 1.2608-0.14825 2.6162-1.196 3.5066-1.5459 1.3136-3.8769 1.1296-5.1906-0.41625s-1.1156-3.8599 0.43034-5.1734c1.056-0.89742 2.4595-1.09 3.6706-0.63152l2.7832-2.3419c-1.7951-1.9753-3.5804-3.9576-5.3538-5.9633l-2.5089 2.1167c0.24434 1.2608-0.13116 2.6021-1.1789 3.4925-1.5459 1.3136-3.8629 1.1467-5.1765-0.39914s-1.1296-3.8769 0.41625-5.1906c1.056-0.89737 2.4565-1.0587 3.6676-0.60029l2.4263-2.0776c-1.5936-1.8233-3.1784-3.6681-4.7523-5.5102l-2.6835 2.2886c0.24448 1.2609-0.14826 2.6162-1.196 3.5066-1.5459 1.3137-3.877 1.1296-5.1906-0.41624s-1.1156-3.8599 0.43034-5.1735c1.056-0.89736 2.4596-1.0898 3.6706-0.63152l2.6663-2.2746c-2.0048-2.3713-3.9777-4.7487-5.9471-7.1405l-2.4747 2.0886c0.24443 1.2609-0.1311 2.6021-1.1789 3.4925-1.5459 1.3137-3.8628 1.1468-5.1765-0.39913s-1.1297-3.8769 0.41627-5.1906c1.056-0.89742 2.4595-1.0899 3.6707-0.6315l2.4918-2.1027c-1.5795-1.9368-3.1502-3.893-4.7045-5.8364l-2.5481 2.0341c0.20494 1.2678-0.22561 2.5918-1.3006 3.449-1.5861 1.2648-3.8963 1.031-5.1612-0.5552s-0.99666-3.9245 0.58948-5.1893c1.0835-0.86399 2.4762-0.98547 3.6724-0.4895l2.5309-2.02c-1.616-2.0386-3.2015-4.0737-4.7876-6.1124l-2.5903 1.9827c0.17445 1.2724-0.28181 2.5945-1.3771 3.4257-1.6161 1.2263-3.9195 0.90481-5.1458-0.71125s-0.9048-3.9195 0.71126-5.1458c1.1039-0.83771 2.4964-0.9345 3.6804-0.40993l2.5389-1.9405c-1.7287-2.2404-3.4484-4.4827-5.1381-6.7142l-2.829 2.0065c0.13459 1.2772-0.37811 2.5857-1.4989 3.3822-1.6536 1.1752-3.9552 0.7863-5.1304-0.86732s-0.78629-3.9552 0.86733-5.1304c1.1296-0.8028 2.5494-0.8574 3.7164-0.29608l2.7292-1.9533c-1.4745-1.9623-2.9443-3.9198-4.3862-5.8681l-3.2202 2.2989c0.13459 1.2772-0.37813 2.5857-1.4989 3.3822-1.6536 1.1752-3.9412 0.80344-5.1164-0.85019s-0.78629-3.9552 0.86733-5.1304c1.1296-0.80279 2.5494-0.85741 3.7164-0.29608l3.1688-2.2567c-1.5132-2.0592-3.0092-4.1256-4.4834-6.1613l-3.3371 2.3662c0.13459 1.2772-0.37813 2.5857-1.4989 3.3822-1.6536 1.1752-3.9412 0.80343-5.1164-0.85018s-0.7863-3.9552 0.86733-5.1304c1.1296-0.80278 2.5494-0.85739 3.7164-0.29608l3.3028-2.338c-1.55-2.1544-3.098-4.2907-4.6008-6.4092l-3.5086 2.5069c0.13459 1.2772-0.37815 2.5857-1.4989 3.3822-1.6536 1.1752-3.9412 0.80343-5.1164-0.85017s-0.78629-3.9552 0.86733-5.1305c1.1296-0.80278 2.5494-0.85739 3.7164-0.29608l3.5226-2.4897c-1.5346-2.1765-3.0687-4.3239-4.5494-6.4514l-3.5912 2.546c0.13459 1.2772-0.37814 2.5857-1.4989 3.3822-1.6536 1.1752-3.9412 0.80344-5.1164-0.85019s-0.80036-3.9724 0.85326-5.1476c1.1296-0.80279 2.5494-0.85739 3.7164-0.29608l3.6083-2.5601c-1.4284-2.064-2.8434-4.1443-4.2166-6.1508l-2.8976 2.0628c0.13459 1.2772-0.37811 2.5857-1.4989 3.3822-1.6536 1.1752-3.9412 0.80341-5.1164-0.85019s-0.78629-3.9552 0.86733-5.1304c1.1296-0.80278 2.5494-0.85739 3.7164-0.29608l2.9319-2.0909c-1.2066-1.7721-2.4188-3.5508-3.5785-5.2686l-3.1002 2.2004c0.13459 1.2772-0.37815 2.5857-1.4989 3.3822-1.6536 1.1752-3.9412 0.80344-5.1164-0.85018s-0.7863-3.9552 0.86733-5.1304c1.1296-0.80279 2.5494-0.85738 3.7164-0.29608l3.1516-2.2426-3.5724-5.331z" fill="url(#l)" fill-rule="evenodd" stroke="#606d85" stroke-width="2.4841"/>
 <g transform="matrix(.45026 .54856 -.54856 .45026 380.78 -597.79)" fill="none" stroke="#5b70bc" stroke-linecap="round" stroke-width="4">
  <path d="m867.65 555.69c27.576 7.0059 53.593 7.7091 91.985 8.4525"/>
  <path d="m827.95 775.4c47.934 13.622 76.119 19.781 121.89 21.258"/>
  <path d="m868.25 575.28c54.177 14.164 186.22 14.012 228.68 8.774"/>
  <path d="m866.82 595.19c54.057 14.564 179 15.397 221.48 10.477"/>
  <path d="m867.38 615.1c53.938 14.965 185.92 16.782 228.43 12.18"/>
  <path d="m865.95 635.01c53.819 15.365 120.61 16.147 169.21 15.903"/>
  <path d="m862.52 654.92c53.7 15.765 185.62 19.552 228.19 15.586"/>
  <path d="m861.09 674.83c53.581 16.166 185.47 20.937 228.06 17.289"/>
  <path d="m857.66 694.74c53.461 16.566 185.32 22.322 227.94 18.992"/>
  <path d="m852.22 714.65c53.342 16.967 185.16 23.707 227.82 20.695"/>
  <path d="m845.8 733.55c42.111 12.316 57.734 15.496 99.406 16.842"/>
  <path d="m835.89 754.47c53.104 17.768 184.86 26.477 227.57 24.1"/>
 </g>
 <path d="m370.34 27.069c-25.086 1.1626-48.089 71.223-51.682 158.28-3.6498 88.436 14.128 161.09 39.674 162.14l30.762 1.2498 0.32381-6.4226c-21.937-7.6185-36.65-74.665-33.317-155.43 3.4414-83.388 24.859-150.6 48.217-152.51l0.30448-5.9564-0.07762 0.00109-32.989-1.348c-0.39916-0.01648-0.81826-0.02725-1.2164-0.00879z" fill="url(#m)" fill-rule="evenodd"/>
 <path d="m403.36 28.443c-25.086 1.1626-48.115 71.224-51.708 158.28-3.5443 85.881 13.109 156.84 37.47 161.84l0.30048-6.2411c-21.937-7.6185-36.65-74.665-33.317-155.43 3.4414-83.388 24.859-150.6 48.217-152.51l0.30448-5.9564-0.07762 0.00109c-0.39916-0.01647-0.79202-0.00173-1.1902 0.01673z" fill="url(#c)" fill-rule="evenodd"/>
</svg>
