<?xml version="1.0" encoding="UTF-8"?>
<svg viewBox="0 0 160 160" xmlns="http://www.w3.org/2000/svg" xmlns:xlink="http://www.w3.org/1999/xlink">
 <defs>
  <linearGradient id="a">
   <stop stop-color="#dadada" offset="0"/>
   <stop stop-color="#f1f1f1" offset=".34923"/>
   <stop stop-color="#f0f0f0" offset="1"/>
  </linearGradient>
  <linearGradient id="d" x1=".85827" x2=".06299" y1=".14063" y2=".54688">
   <stop stop-color="#fff" offset="0"/>
   <stop stop-color="#fff" stop-opacity="0" offset="1"/>
  </linearGradient>
  <linearGradient id="c" x1=".05217" x2=".78261" y1=".97656" y2=".00781">
   <stop stop-opacity=".09551" offset="0"/>
   <stop stop-opacity="0" offset="1"/>
  </linearGradient>
  <linearGradient id="b" x1="127.7" x2="37.199" y1="60.283" y2="138.9" gradientUnits="userSpaceOnUse">
   <stop offset="0"/>
   <stop stop-opacity=".27559" offset=".31508"/>
   <stop stop-opacity="0" offset="1"/>
  </linearGradient>
  <linearGradient id="f" x1=".88034" x2=".08547" y1=".21094" y2="1.1797" xlink:href="#a"/>
  <linearGradient id="e" x1=".63248" x2="-.37607" y1=".32813" y2="1.3281" xlink:href="#a"/>
 </defs>
 <path d="m17.159 6.3293v146.96h134.11v-110.22l-33.528-36.739h-100.58z" fill="#fff" fill-rule="evenodd"/>
 <g transform="matrix(.30417 0 0 .29757 -36.704 -112.49)" fill="url(#c)" fill-opacity=".75" fill-rule="evenodd">
  <path d="m173.36 408.81v489.04h435.05v-366.78l-108.76-122.26h-326.29z"/>
  <path d="m170.12 407.19v493.91h441.53v-371.28c-36.847-41.423-73.68-82.859-110.56-124.25h-330.97v1.625z"/>
  <path d="m166.88 403.94v500.41h448.03v-375.78c-37.451-42.09-74.889-84.192-112.38-126.25h-335.66v1.625z"/>
 </g>
 <path transform="matrix(.29669 0 0 .29669 -71.196 -34.058)" d="m297.99 136.74v495.32h452.02v-371.49l-113.01-123.83h-339.02z" fill="url(#f)" fill-rule="evenodd" stroke="#000" stroke-opacity=".36478" stroke-width="1.4375"/>
 <path transform="matrix(.29669 0 0 .29669 -71.196 -34.058)" d="m301.31 174.91-2.0359 454h443.82l0.25448-112.23c-9.9248 3.8172-110.19-138.18-236.41-132.08-126.34 6.1131-93.649-191.37-205.62-209.69z" fill="url(#d)" fill-rule="evenodd"/>
 <path transform="matrix(.29669 0 0 .29669 -71.196 -34.058)" d="m750.01 260.57c-34.07-10.086-78.216-8.6561-111.57-2.9072 5.7583-36.949 6.478-83.255-1.4396-120.92l113.01 123.83z" fill="url(#e)" fill-rule="evenodd"/>
 <path d="m31.922 18.268h74.377v20.954h-74.377z" fill="#7b7b7b" fill-opacity=".43396" fill-rule="evenodd"/>
 <g transform="translate(-5.2771 -.50876)" fill="url(#b)" font-family="Arial" font-size="14">
  <path d="m40.517,59.16925c-2.002,0-3.318,1.764-3.318,4.858s1.316,4.872 3.318,4.872 3.318-1.778 3.318-4.872-1.316-4.858-3.318-4.858m0,.658c1.288,0 1.988,1.428 1.988,4.2s-.7,4.2-1.988,4.2-2.002-1.414-2.002-4.186c0-2.786.714-4.214 2.002-4.214"/>
  <path d="m48.77197,59.16925-3.038.91v.588l2.198-.392v7.532l-.168.238-1.61.084v.602h4.69v-.588l-1.512-.07-.168-.21v-8.694h-.392"/>
  <path d="m56.103 59.169c-2.002 0-3.318 1.764-3.318 4.858s1.316 4.872 3.318 4.872 3.318-1.778 3.318-4.872-1.316-4.858-3.318-4.858m0 0.658c1.288 0 1.988 1.428 1.988 4.2s-0.7 4.2-1.988 4.2-2.002-1.414-2.002-4.186c0-2.786 0.714-4.214 2.002-4.214"/>
  <path d="m64.35791,59.16925-3.038.91v.588l2.198-.392v7.532l-.168.238-1.61.084v.602h4.69v-.588l-1.512-.07-.168-.21v-8.694h-.392"/>
  <path d="m72.15087,59.16925-3.038.91v.588l2.198-.392v7.532l-.168.238-1.61.084v.602h4.69v-.588l-1.512-.07-.168-.21v-8.694h-.392"/>
  <path d="m79.94384,59.16925-3.038.91v.588l2.198-.392v7.532l-.168.238-1.61.084v.602h4.69v-.588l-1.512-.07-.168-.21v-8.694h-.392"/>
  <path d="m87.275 59.169c-2.002 0-3.318 1.764-3.318 4.858s1.316 4.872 3.318 4.872 3.318-1.778 3.318-4.872-1.316-4.858-3.318-4.858m0 0.658c1.288 0 1.988 1.428 1.988 4.2s-0.7 4.2-1.988 4.2-2.002-1.414-2.002-4.186c0-2.786 0.714-4.214 2.002-4.214"/>
  <path d="m95.52978,59.16925-3.038.91v.588l2.198-.392v7.532l-.168.238-1.61.084v.602h4.69v-.588l-1.512-.07-.168-.21v-8.694h-.392"/>
  <path d="m102.86 59.169c-2.002 0-3.318 1.764-3.318 4.858s1.316 4.872 3.318 4.872 3.318-1.778 3.318-4.872-1.316-4.858-3.318-4.858m0 0.658c1.288 0 1.988 1.428 1.988 4.2s-0.7 4.2-1.988 4.2-2.002-1.414-2.002-4.186c0-2.786 0.714-4.214 2.002-4.214"/>
  <path d="m111.11572,59.16925-3.038.91v.588l2.198-.392v7.532l-.168.238-1.61.084v.602h4.69v-.588l-1.512-.07-.168-.21v-8.694h-.392"/>
  <path d="m118.45 59.169c-2.002 0-3.318 1.764-3.318 4.858s1.316 4.872 3.318 4.872 3.318-1.778 3.318-4.872-1.316-4.858-3.318-4.858m0 0.658c1.288 0 1.988 1.428 1.988 4.2s-0.7 4.2-1.988 4.2-2.002-1.414-2.002-4.186c0-2.786 0.714-4.214 2.002-4.214"/>
  <path d="m126.24 59.169c-2.002 0-3.318 1.764-3.318 4.858s1.316 4.872 3.318 4.872 3.318-1.778 3.318-4.872-1.316-4.858-3.318-4.858m0 0.658c1.288 0 1.988 1.428 1.988 4.2s-0.70001 4.2-1.988 4.2-2.002-1.414-2.002-4.186c0-2.786 0.714-4.214 2.002-4.214"/>
  <path d="m134.49463,59.16925-3.03801.91v.588l2.198-.392v7.532l-.168.238-1.61.084v.602h4.69v-.588l-1.512-.07-.168-.21v-8.694h-.39199"/>
  <path d="m141.83 59.169c-2.002 0-3.318 1.764-3.318 4.858s1.316 4.872 3.318 4.872 3.318-1.778 3.318-4.872-1.316-4.858-3.318-4.858m0 0.658c1.288 0 1.988 1.428 1.988 4.2s-0.7 4.2-1.988 4.2-2.002-1.414-2.002-4.186c0-2.786 0.71401-4.214 2.002-4.214"/>
  <path d="m40.979,76.66925-3.038.91v.588l2.198-.392v7.532l-.168.238-1.61.084v.602h4.69v-.588l-1.512-.07-.168-.21v-8.694h-.392"/>
  <path d="m48.31 76.669c-2.002 0-3.318 1.764-3.318 4.858s1.316 4.872 3.318 4.872 3.318-1.778 3.318-4.872-1.316-4.858-3.318-4.858m0 0.658c1.288 0 1.988 1.428 1.988 4.2s-0.7 4.2-1.988 4.2-2.002-1.414-2.002-4.186c0-2.786 0.714-4.214 2.002-4.214"/>
  <path d="m56.103 76.669c-2.002 0-3.318 1.764-3.318 4.858s1.316 4.872 3.318 4.872 3.318-1.778 3.318-4.872-1.316-4.858-3.318-4.858m0 0.658c1.288 0 1.988 1.428 1.988 4.2s-0.7 4.2-1.988 4.2-2.002-1.414-2.002-4.186c0-2.786 0.714-4.214 2.002-4.214"/>
  <path d="m63.896 76.669c-2.002 0-3.318 1.764-3.318 4.858s1.316 4.872 3.318 4.872 3.318-1.778 3.318-4.872-1.316-4.858-3.318-4.858m0 0.658c1.288 0 1.988 1.428 1.988 4.2s-0.7 4.2-1.988 4.2-2.002-1.414-2.002-4.186c0-2.786 0.714-4.214 2.002-4.214"/>
  <path d="m72.15087,76.66925-3.038.91v.588l2.198-.392v7.532l-.168.238-1.61.084v.602h4.69v-.588l-1.512-.07-.168-.21v-8.694h-.392"/>
  <path d="m79.482 76.669c-2.002 0-3.318 1.764-3.318 4.858s1.316 4.872 3.318 4.872 3.318-1.778 3.318-4.872-1.316-4.858-3.318-4.858m0 0.658c1.288 0 1.988 1.428 1.988 4.2s-0.7 4.2-1.988 4.2-2.002-1.414-2.002-4.186c0-2.786 0.714-4.214 2.002-4.214"/>
  <path d="m87.73681,76.66925-3.038.91v.588l2.198-.392v7.532l-.168.238-1.61.084v.602h4.69v-.588l-1.512-.07-.168-.21v-8.694h-.392"/>
  <path d="m95.068 76.669c-2.002 0-3.318 1.764-3.318 4.858s1.316 4.872 3.318 4.872 3.318-1.778 3.318-4.872-1.316-4.858-3.318-4.858m0 0.658c1.288 0 1.988 1.428 1.988 4.2s-0.7 4.2-1.988 4.2-2.002-1.414-2.002-4.186c0-2.786 0.714-4.214 2.002-4.214"/>
  <path d="m103.32275,76.66925-3.038.91v.588l2.198-.392v7.532l-.168.238-1.61.084v.602h4.69v-.588l-1.512-.07-.168-.21v-8.694h-.392"/>
  <path d="m111.11572,76.66925-3.038.91v.588l2.198-.392v7.532l-.168.238-1.61.084v.602h4.69v-.588l-1.512-.07-.168-.21v-8.694h-.392"/>
  <path d="m118.45 76.669c-2.002 0-3.318 1.764-3.318 4.858s1.316 4.872 3.318 4.872 3.318-1.778 3.318-4.872-1.316-4.858-3.318-4.858m0 0.658c1.288 0 1.988 1.428 1.988 4.2s-0.7 4.2-1.988 4.2-2.002-1.414-2.002-4.186c0-2.786 0.714-4.214 2.002-4.214"/>
  <path d="m126.70166,76.66925-3.038.91v.588l2.198-.392v7.532l-.168.238-1.61.084v.602h4.69v-.588l-1.512-.07-.168-.21v-8.694h-.392"/>
  <path d="m134.03 76.669c-2.002 0-3.318 1.764-3.318 4.858s1.316 4.872 3.318 4.872 3.318-1.778 3.318-4.872-1.316-4.858-3.318-4.858m0 0.658c1.288 0 1.988 1.428 1.988 4.2s-0.7 4.2-1.988 4.2-2.002-1.414-2.002-4.186c0-2.786 0.71401-4.214 2.002-4.214"/>
  <path d="m142.28759,76.66925-3.038.91v.588l2.198-.392v7.532l-.168.238-1.61.084v.602h4.69v-.588l-1.512-.07-.168-.21v-8.694h-.392"/>
  <path d="m40.517,94.16925c-2.002,0-3.318,1.764-3.318,4.858s1.316,4.872 3.318,4.872 3.318-1.778 3.318-4.872-1.316-4.858-3.318-4.858m0,.658c1.288,0 1.988,1.428 1.988,4.2s-.7,4.2-1.988,4.2-2.002-1.414-2.002-4.186c0-2.786.714-4.214 2.002-4.214"/>
  <path d="m48.77197,94.16925-3.038.91v.588l2.198-.392v7.532l-.168.238-1.61.084v.602h4.69v-.588l-1.512-.07-.168-.21v-8.694h-.392"/>
  <path d="m56.103 94.169c-2.002 0-3.318 1.764-3.318 4.858s1.316 4.872 3.318 4.872 3.318-1.778 3.318-4.872-1.316-4.858-3.318-4.858m0 0.658c1.288 0 1.988 1.428 1.988 4.2s-0.7 4.2-1.988 4.2-2.002-1.414-2.002-4.186c0-2.786 0.714-4.214 2.002-4.214"/>
  <path d="m64.35791,94.16925-3.038.91v.588l2.198-.392v7.532l-.168.238-1.61.084v.602h4.69v-.588l-1.512-.07-.168-.21v-8.694h-.392"/>
  <path d="m71.689 94.169c-2.002 0-3.318 1.764-3.318 4.858s1.316 4.872 3.318 4.872 3.318-1.778 3.318-4.872-1.316-4.858-3.318-4.858m0 0.658c1.288 0 1.988 1.428 1.988 4.2s-0.7 4.2-1.988 4.2-2.002-1.414-2.002-4.186c0-2.786 0.714-4.214 2.002-4.214"/>
  <path d="m79.482 94.169c-2.002 0-3.318 1.764-3.318 4.858s1.316 4.872 3.318 4.872 3.318-1.778 3.318-4.872-1.316-4.858-3.318-4.858m0 0.658c1.288 0 1.988 1.428 1.988 4.2s-0.7 4.2-1.988 4.2-2.002-1.414-2.002-4.186c0-2.786 0.714-4.214 2.002-4.214"/>
  <path d="m87.73681,94.16925-3.038.91v.588l2.198-.392v7.532l-.168.238-1.61.084v.602h4.69v-.588l-1.512-.07-.168-.21v-8.694h-.392"/>
  <path d="m95.068 94.169c-2.002 0-3.318 1.764-3.318 4.858s1.316 4.872 3.318 4.872 3.318-1.778 3.318-4.872-1.316-4.858-3.318-4.858m0 0.658c1.288 0 1.988 1.428 1.988 4.2s-0.7 4.2-1.988 4.2-2.002-1.414-2.002-4.186c0-2.786 0.714-4.214 2.002-4.214"/>
  <path d="m103.32275,94.16925-3.038.91v.588l2.198-.392v7.532l-.168.238-1.61.084v.602h4.69v-.588l-1.512-.07-.168-.21v-8.694h-.392"/>
  <path d="m110.65 94.169c-2.002 0-3.318 1.764-3.318 4.858s1.316 4.872 3.318 4.872 3.318-1.778 3.318-4.872-1.316-4.858-3.318-4.858m0 0.658c1.288 0 1.988 1.428 1.988 4.2s-0.7 4.2-1.988 4.2-2.002-1.414-2.002-4.186c0-2.786 0.714-4.214 2.002-4.214"/>
  <path d="m118.90869,94.16925-3.038.91v.588l2.198-.392v7.532l-.168.238-1.61.084v.602h4.69v-.588l-1.512-.07-.168-.21v-8.694h-.392"/>
  <path d="m126.70166,94.16925-3.038.91v.588l2.198-.392v7.532l-.168.238-1.61.084v.602h4.69v-.588l-1.512-.07-.168-.21v-8.694h-.392"/>
  <path d="m134.49463,94.16925-3.03801.91v.588l2.198-.392v7.532l-.168.238-1.61.084v.602h4.69v-.588l-1.512-.07-.168-.21v-8.694h-.39199"/>
  <path d="m142.28759,94.16925-3.038.91v.588l2.198-.392v7.532l-.168.238-1.61.084v.602h4.69v-.588l-1.512-.07-.168-.21v-8.694h-.392"/>
  <path d="m40.517,111.66925c-2.002,0-3.318,1.764-3.318,4.858s1.316,4.872 3.318,4.872 3.318-1.778 3.318-4.872-1.316-4.858-3.318-4.858m0,.658c1.288,0 1.988,1.428 1.988,4.2s-.7,4.2-1.988,4.2-2.002-1.414-2.002-4.186c0-2.786.714-4.214 2.002-4.214"/>
  <path d="m48.77197,111.66925-3.038.91v.588l2.198-.392v7.532l-.168.238-1.61.084v.602h4.69v-.588l-1.512-.07-.168-.21v-8.694h-.392"/>
  <path d="m56.103 111.67c-2.002 0-3.318 1.764-3.318 4.858s1.316 4.872 3.318 4.872 3.318-1.778 3.318-4.872-1.316-4.858-3.318-4.858m0 0.658c1.288 0 1.988 1.428 1.988 4.2s-0.7 4.2-1.988 4.2-2.002-1.414-2.002-4.186c0-2.786 0.714-4.214 2.002-4.214"/>
  <path d="m64.35791,111.66925-3.038.91v.588l2.198-.392v7.532l-.168.238-1.61.084v.602h4.69v-.588l-1.512-.07-.168-.21v-8.694h-.392"/>
  <path d="m71.689 111.67c-2.002 0-3.318 1.764-3.318 4.858s1.316 4.872 3.318 4.872 3.318-1.778 3.318-4.872-1.316-4.858-3.318-4.858m0 0.658c1.288 0 1.988 1.428 1.988 4.2s-0.7 4.2-1.988 4.2-2.002-1.414-2.002-4.186c0-2.786 0.714-4.214 2.002-4.214"/>
  <path d="m79.482 111.67c-2.002 0-3.318 1.764-3.318 4.858s1.316 4.872 3.318 4.872 3.318-1.778 3.318-4.872-1.316-4.858-3.318-4.858m0 0.658c1.288 0 1.988 1.428 1.988 4.2s-0.7 4.2-1.988 4.2-2.002-1.414-2.002-4.186c0-2.786 0.714-4.214 2.002-4.214"/>
  <path d="m87.73681,111.66925-3.038.91v.588l2.198-.392v7.532l-.168.238-1.61.084v.602h4.69v-.588l-1.512-.07-.168-.21v-8.694h-.392"/>
  <path d="m95.068 111.67c-2.002 0-3.318 1.764-3.318 4.858s1.316 4.872 3.318 4.872 3.318-1.778 3.318-4.872-1.316-4.858-3.318-4.858m0 0.658c1.288 0 1.988 1.428 1.988 4.2s-0.7 4.2-1.988 4.2-2.002-1.414-2.002-4.186c0-2.786 0.714-4.214 2.002-4.214"/>
  <path d="m102.86 111.67c-2.002 0-3.318 1.764-3.318 4.858s1.316 4.872 3.318 4.872 3.318-1.778 3.318-4.872-1.316-4.858-3.318-4.858m0 0.658c1.288 0 1.988 1.428 1.988 4.2s-0.7 4.2-1.988 4.2-2.002-1.414-2.002-4.186c0-2.786 0.714-4.214 2.002-4.214"/>
  <path d="m111.11572,111.66925-3.038.91v.588l2.198-.392v7.532l-.168.238-1.61.084v.602h4.69v-.588l-1.512-.07-.168-.21v-8.694h-.392"/>
  <path d="m118.45 111.67c-2.002 0-3.318 1.764-3.318 4.858s1.316 4.872 3.318 4.872 3.318-1.778 3.318-4.872-1.316-4.858-3.318-4.858m0 0.658c1.288 0 1.988 1.428 1.988 4.2s-0.7 4.2-1.988 4.2-2.002-1.414-2.002-4.186c0-2.786 0.714-4.214 2.002-4.214"/>
  <path d="m126.70166,111.66925-3.038.91v.588l2.198-.392v7.532l-.168.238-1.61.084v.602h4.69v-.588l-1.512-.07-.168-.21v-8.694h-.392"/>
  <path d="m134.03 111.67c-2.002 0-3.318 1.764-3.318 4.858s1.316 4.872 3.318 4.872 3.318-1.778 3.318-4.872-1.316-4.858-3.318-4.858m0 0.658c1.288 0 1.988 1.428 1.988 4.2s-0.7 4.2-1.988 4.2-2.002-1.414-2.002-4.186c0-2.786 0.71401-4.214 2.002-4.214"/>
  <path d="m141.83 111.67c-2.002 0-3.318 1.764-3.318 4.858s1.316 4.872 3.318 4.872 3.318-1.778 3.318-4.872-1.316-4.858-3.318-4.858m0 0.658c1.288 0 1.988 1.428 1.988 4.2s-0.7 4.2-1.988 4.2-2.002-1.414-2.002-4.186c0-2.786 0.71401-4.214 2.002-4.214"/>
  <path d="m40.517,129.16925c-2.002,0-3.318,1.764-3.318,4.858s1.316,4.872 3.318,4.872 3.318-1.778 3.318-4.872-1.316-4.858-3.318-4.858m0,.658c1.288,0 1.988,1.428 1.988,4.2s-.7,4.2-1.988,4.2-2.002-1.414-2.002-4.186c0-2.786.714-4.214 2.002-4.214"/>
  <path d="m48.77197,129.16925-3.038.91v.588l2.198-.392v7.532l-.168.238-1.61.084v.602h4.69v-.588l-1.512-.07-.168-.21v-8.694h-.392"/>
  <path d="m56.56494,129.16925-3.038.91v.588l2.198-.392v7.532l-.168.238-1.61.084v.602h4.69v-.588l-1.512-.07-.168-.21v-8.694h-.392"/>
  <path d="m63.896 129.17c-2.002 0-3.318 1.764-3.318 4.858s1.316 4.872 3.318 4.872 3.318-1.778 3.318-4.872-1.316-4.858-3.318-4.858m0 0.658c1.288 0 1.988 1.428 1.988 4.2s-0.7 4.2-1.988 4.2-2.002-1.414-2.002-4.186c0-2.786 0.714-4.214 2.002-4.214"/>
  <path d="m72.15087,129.16925-3.038.91v.588l2.198-.392v7.532l-.168.238-1.61.084v.602h4.69v-.588l-1.512-.07-.168-.21v-8.694h-.392"/>
  <path d="m79.482 129.17c-2.002 0-3.318 1.764-3.318 4.858s1.316 4.872 3.318 4.872 3.318-1.778 3.318-4.872-1.316-4.858-3.318-4.858m0 0.658c1.288 0 1.988 1.428 1.988 4.2s-0.7 4.2-1.988 4.2-2.002-1.414-2.002-4.186c0-2.786 0.714-4.214 2.002-4.214"/>
  <path d="m87.73681,129.16925-3.038.91v.588l2.198-.392v7.532l-.168.238-1.61.084v.602h4.69v-.588l-1.512-.07-.168-.21v-8.694h-.392"/>
  <path d="m95.068 129.17c-2.002 0-3.318 1.764-3.318 4.858s1.316 4.872 3.318 4.872 3.318-1.778 3.318-4.872-1.316-4.858-3.318-4.858m0 0.658c1.288 0 1.988 1.428 1.988 4.2s-0.7 4.2-1.988 4.2-2.002-1.414-2.002-4.186c0-2.786 0.714-4.214 2.002-4.214"/>
  <path d="m102.86 129.17c-2.002 0-3.318 1.764-3.318 4.858s1.316 4.872 3.318 4.872 3.318-1.778 3.318-4.872-1.316-4.858-3.318-4.858m0 0.658c1.288 0 1.988 1.428 1.988 4.2s-0.7 4.2-1.988 4.2-2.002-1.414-2.002-4.186c0-2.786 0.714-4.214 2.002-4.214"/>
  <path d="m111.11572,129.16925-3.038.91v.588l2.198-.392v7.532l-.168.238-1.61.084v.602h4.69v-.588l-1.512-.07-.168-.21v-8.694h-.392"/>
  <path d="m118.45 129.17c-2.002 0-3.318 1.764-3.318 4.858s1.316 4.872 3.318 4.872 3.318-1.778 3.318-4.872-1.316-4.858-3.318-4.858m0 0.658c1.288 0 1.988 1.428 1.988 4.2s-0.7 4.2-1.988 4.2-2.002-1.414-2.002-4.186c0-2.786 0.714-4.214 2.002-4.214"/>
  <path d="m126.70166,129.16925-3.038.91v.588l2.198-.392v7.532l-.168.238-1.61.084v.602h4.69v-.588l-1.512-.07-.168-.21v-8.694h-.392"/>
  <path d="m134.03 129.17c-2.002 0-3.318 1.764-3.318 4.858s1.316 4.872 3.318 4.872 3.318-1.778 3.318-4.872-1.316-4.858-3.318-4.858m0 0.658c1.288 0 1.988 1.428 1.988 4.2s-0.7 4.2-1.988 4.2-2.002-1.414-2.002-4.186c0-2.786 0.71401-4.214 2.002-4.214"/>
  <path d="m142.28759,129.16925-3.038.91v.588l2.198-.392v7.532l-.168.238-1.61.084v.602h4.69v-.588l-1.512-.07-.168-.21v-8.694h-.392"/>
 </g>
</svg>
