<?xml version="1.0" encoding="UTF-8"?>
<!DOCTYPE svg  PUBLIC '-//W3C//DTD SVG 1.1//EN'  'http://www.w3.org/Graphics/SVG/1.1/DTD/svg11.dtd'>
<svg enable-background="new 0 0 46.333 44.833" version="1.1" viewBox="0 0 46.333 44.833" xmlns="http://www.w3.org/2000/svg">
 <polygon points="1.531 43.468 1.671 2.321 36.002 2.321 36.002 43.468" fill="#fff"/>
 <path d="m35.507 2.817v40.156h-33.479l0.137-40.156h33.342m0.991-0.992h-35.321l-0.144 42.139h35.465v-42.139z" fill="#58595b"/>
 <g fill="#ccc">
  <rect x="4.503" y="6.225" width="28.277" height="1.487"/>
  <rect x="4.503" y="9.695" width="28.277" height="1.487"/>
  <rect x="4.503" y="13.165" width="28.277" height="1.488"/>
  <rect x="4.503" y="16.635" width="28.277" height="1.487"/>
  <rect x="4.503" y="20.105" width="28.277" height="1.487"/>
  <rect x="4.503" y="23.575" width="28.277" height="1.488"/>
  <rect x="4.503" y="27.046" width="28.277" height="1.487"/>
  <rect x="4.503" y="30.517" width="28.277" height="1.486"/>
  <rect x="4.503" y="33.986" width="28.277" height="1.487"/>
  <rect x="4.503" y="37.456" width="28.277" height="1.488"/>
 </g>
 <g opacity=".75">
  <path d="m9.523 37.242v-0.497l4.522-7.188 22.517-22.556 3.45-3.594 2.025-1.942s0.867-0.166 1.693 0 1.238 0.909 1.28 1.446c0.095 0.788 0.095 0.788 0 1.57-2.024 2.053-1.821 1.848-28.01 27.928l-6.94 4.833h-0.537z"/>
  <path d="m11.345 36.348l5.657-3.938c26.187-26.081 25.984-25.875 28.01-27.928 0.094-0.782 0.094-0.782 0-1.571-0.042-0.536-0.455-1.28-1.281-1.445s-1.693 0-1.693 0l-2.024 1.942-3.45 3.594-22.518 22.557-3.623 5.712 0.922 1.077z"/>
  <polygon points="14.258 29.557 36.564 7.209 39.391 9.889 17 32.201"/>
  <path d="m36.567 7.417l2.609 2.475-22.179 22.1-2.527-2.438 22.097-22.137m-5e-3 -0.416l-22.516 22.558 2.955 2.851 22.603-22.523-3.042-2.886z"/>
  <path d="m40.012 3.408"/>
  <path d="m39.728 3.906l2.413-2.333c0.095-0.019 0.32-0.046 0.599-0.046 0.44 0 0.851 0.065 0.966 0.085 0.785 0.157 1.123 0.87 1.157 1.311 0.085 0.61 0.106 0.991 2e-3 1.53-0.377 0.383-0.866 0.861-1.437 1.42-0.28 0.273-0.58 0.566-0.899 0.885l-2.801-2.852z"/>
  <path d="m42.738 1.675c0.43 0 0.829 0.063 0.934 0.082 0.703 0.141 1.013 0.797 1.044 1.195 0.079 0.565 0.102 0.913 0.018 1.392-0.397 0.432-0.868 0.893-1.41 1.423-0.249 0.244-0.514 0.502-0.794 0.78l-2.591-2.639 2.254-2.179c0.104-0.027 0.274-0.054 0.545-0.054m1e-3 -0.297c-0.265 0-0.518 0.023-0.702 0.087-0.677 0.654-2.521 2.438-2.521 2.438l3.011 3.066c1.023-1.024 1.844-1.784 2.483-2.488 0.112-0.581 0.082-0.983 0-1.57-0.042-0.537-0.454-1.28-1.28-1.446-0.252-0.044-0.631-0.087-0.991-0.087z"/>
  <polygon points="36.421 7.208 40.011 3.619 42.813 6.472 39.246 10.032"/>
  <path d="m40.01 3.83l2.594 2.642c-0.916 0.915-2.061 2.058-3.357 3.351l-2.614-2.613 3.377-3.38m2e-3 -0.423l-3.801 3.801 3.035 3.034c1.484-1.48 2.781-2.774 3.776-3.769l-3.01-3.066z"/>
 </g>
 <path d="m9.028 36.746v-0.497l4.522-7.188 22.515-22.556 3.45-3.594 2.025-1.942s0.867-0.166 1.693 0 1.238 0.909 1.28 1.446c0.095 0.788 0.095 0.788 0 1.57-2.024 2.053-1.821 1.848-28.009 27.927l-6.94 4.833h-0.536z"/>
 <path d="m10.849 35.852l5.657-3.938c26.187-26.081 25.984-25.874 28.01-27.928 0.094-0.782 0.094-0.782 0-1.571-0.042-0.536-0.455-1.28-1.281-1.445s-1.693 0-1.693 0l-2.024 1.942-3.45 3.594-22.517 22.557-3.623 5.712 0.921 1.077z" fill="#e1aa84"/>
 <polygon points="13.762 29.061 36.068 6.713 38.895 9.394 16.504 31.705" fill="#f8b019"/>
 <path d="m36.071 6.921l2.609 2.475-22.179 22.1-2.527-2.438 22.097-22.137m-6e-3 -0.415l-22.515 22.557 2.955 2.851 22.602-22.523-3.042-2.885z" fill="#da8628"/>
 <path d="m39.516 2.912"/>
 <path d="m39.231 3.41l2.413-2.333c0.095-0.019 0.32-0.046 0.599-0.046 0.44 0 0.851 0.065 0.966 0.085 0.785 0.157 1.123 0.87 1.157 1.311 0.085 0.61 0.106 0.991 2e-3 1.53-0.377 0.383-0.866 0.861-1.437 1.42-0.28 0.273-0.58 0.566-0.899 0.885l-2.801-2.852z" fill="#f9ae86"/>
 <path d="m42.242 1.18c0.43 0 0.829 0.063 0.934 0.082 0.703 0.141 1.013 0.797 1.044 1.195 0.079 0.565 0.102 0.913 0.018 1.392-0.397 0.432-0.868 0.893-1.41 1.423-0.249 0.244-0.514 0.502-0.794 0.78l-2.591-2.639 2.254-2.179c0.104-0.028 0.274-0.054 0.545-0.054m1e-3 -0.298c-0.265 0-0.518 0.023-0.702 0.087-0.677 0.654-2.521 2.438-2.521 2.438l3.011 3.066c1.023-1.024 1.844-1.784 2.483-2.488 0.112-0.581 0.082-0.983 0-1.57-0.042-0.537-0.454-1.28-1.28-1.446-0.253-0.043-0.631-0.087-0.991-0.087z" fill="#f16141"/>
 <polygon points="35.925 6.713 39.515 3.123 42.316 5.977 38.75 9.537" fill="#c4c3c4"/>
 <path d="m39.514 3.334l2.594 2.642c-0.916 0.915-2.061 2.058-3.357 3.351l-2.614-2.613 3.377-3.38m2e-3 -0.422l-3.801 3.801 3.035 3.034c1.484-1.48 2.781-2.774 3.776-3.769l-3.01-3.066z" fill="#6d6e71"/>
</svg>
