<?xml version="1.0" encoding="UTF-8" standalone="no"?>
<svg
   xmlns:dc="http://purl.org/dc/elements/1.1/"
   xmlns:cc="http://creativecommons.org/ns#"
   xmlns:rdf="http://www.w3.org/1999/02/22-rdf-syntax-ns#"
   xmlns:svg="http://www.w3.org/2000/svg"
   xmlns="http://www.w3.org/2000/svg"
   xmlns:sodipodi="http://sodipodi.sourceforge.net/DTD/sodipodi-0.dtd"
   xmlns:inkscape="http://www.inkscape.org/namespaces/inkscape"
   id="svg2060"
   version="1.1"
   height="92"
   width="65"
   sodipodi:docname="S3_Bucket_Mech.svg"
   inkscape:version="0.92.2 5c3e80d, 2017-08-06">
  <sodipodi:namedview
     pagecolor="#ffffff"
     bordercolor="#666666"
     borderopacity="1"
     objecttolerance="10"
     gridtolerance="10"
     guidetolerance="10"
     inkscape:pageopacity="0"
     inkscape:pageshadow="2"
     inkscape:window-width="1037"
     inkscape:window-height="699"
     id="namedview822"
     showgrid="false"
     inkscape:zoom="8.6086957"
     inkscape:cx="32.5"
     inkscape:cy="46"
     inkscape:window-x="0"
     inkscape:window-y="0"
     inkscape:window-maximized="0"
     inkscape:current-layer="svg2060" />
  <metadata
     id="metadata2066">
    <rdf:RDF>
      <cc:Work
         rdf:about="">
        <dc:format>image/svg+xml</dc:format>
        <dc:type
           rdf:resource="http://purl.org/dc/dcmitype/StillImage" />
        <dc:title></dc:title>
      </cc:Work>
    </rdf:RDF>
  </metadata>
  <defs
     id="defs2064" />
  <path
     id="path2058"
     d="m.5,33a32,32 0 1,1 64,0l-6 52a28,10 0 0,1-52,0za32,6 0 0,0 64,0a32,6 0 0,0-64,0"
     stroke="#000"
     fill="none" />
  <g
     id="text2070"
     style="font-style:normal;font-variant:normal;font-weight:normal;font-stretch:normal;font-size:42.66666794px;line-height:34.01574707px;font-family:Verdana;-inkscape-font-specification:'Verdana, Normal';font-variant-ligatures:normal;font-variant-caps:normal;font-variant-numeric:normal;font-feature-settings:normal;text-align:start;letter-spacing:0px;word-spacing:0px;writing-mode:lr-tb;text-anchor:start;fill:#000000;fill-opacity:1;stroke:none"
     aria-label="S3">
    <path
       id="path2072"
       style=""
       d="m 30.970961,67.049871 q 0,1.8125 -0.854167,3.583333 -0.833333,1.770833 -2.354167,3 -1.666666,1.333333 -3.895833,2.083333 -2.208334,0.75 -5.333334,0.75 -3.354166,0 -6.041666,-0.625 -2.6666672,-0.625 -5.4375006,-1.854166 v -5.166667 h 0.2916667 q 2.3541667,1.958333 5.4374999,3.020833 3.083334,1.0625 5.791667,1.0625 3.833334,0 5.958334,-1.4375 2.145833,-1.4375 2.145833,-3.833333 0,-2.0625 -1.020833,-3.041667 -1,-0.979167 -3.0625,-1.520833 -1.562501,-0.416667 -3.395834,-0.6875 -1.8125,-0.270834 -3.854167,-0.6875 -4.125,-0.875 -6.1249999,-2.979167 -1.9791667,-2.125 -1.9791667,-5.520834 0,-3.895833 3.2916666,-6.375 3.291667,-2.5 8.354167,-2.5 3.270834,0 6,0.625 2.729167,0.625 4.833334,1.541667 v 4.875 h -0.291667 q -1.770833,-1.5 -4.666667,-2.479167 -2.875,-1 -5.895833,-1 -3.3125,0 -5.333334,1.375 -2,1.375 -2,3.541667 0,1.9375 1,3.041667 1,1.104167 3.520834,1.6875 1.333333,0.291667 3.791666,0.708333 2.458334,0.416667 4.166667,0.854167 3.458334,0.916667 5.208334,2.770833 1.75,1.854167 1.75,5.187501 z" />
    <path
       id="path2074"
       style=""
       d="m 55.054295,60.966537 q 1,0.895833 1.645834,2.25 0.645833,1.354167 0.645833,3.5 0,2.125 -0.770833,3.895834 -0.770834,1.770833 -2.166667,3.083333 -1.5625,1.458333 -3.6875,2.166667 -2.104167,0.6875 -4.625,0.6875 -2.583334,0 -5.083334,-0.625 -2.5,-0.604167 -4.104167,-1.333334 v -4.354166 h 0.3125 q 1.770834,1.166666 4.166667,1.9375 2.395834,0.770833 4.625,0.770833 1.3125,0 2.791667,-0.4375 1.479167,-0.4375 2.395833,-1.291667 0.958334,-0.916666 1.416667,-2.020833 0.479167,-1.104167 0.479167,-2.791667 0,-1.666667 -0.541667,-2.75 -0.520833,-1.104167 -1.458333,-1.729167 -0.9375,-0.645833 -2.270834,-0.875 -1.333333,-0.25 -2.875,-0.25 h -1.875 v -3.458333 h 1.458334 q 3.166666,0 5.041666,-1.3125 1.895834,-1.333333 1.895834,-3.875 0,-1.125 -0.479167,-1.958334 -0.479167,-0.854166 -1.333333,-1.395833 -0.895834,-0.541667 -1.916667,-0.75 -1.020833,-0.208333 -2.3125,-0.208333 -1.979167,0 -4.208333,0.708333 -2.229167,0.708333 -4.208334,2 h -0.208333 v -4.354167 q 1.479166,-0.729166 3.9375,-1.333333 2.479167,-0.625 4.791667,-0.625 2.270833,0 4,0.416667 1.729166,0.416666 3.125,1.333333 1.5,1 2.270833,2.416667 0.770834,1.416666 0.770834,3.3125 0,2.583333 -1.833334,4.520833 -1.8125,1.916667 -4.291667,2.416667 v 0.291667 q 1,0.166666 2.291667,0.708333 1.291667,0.520833 2.1875,1.3125 z" />
  </g>
</svg>
