<?xml version="1.0" encoding="UTF-8" standalone="no"?>
<svg
   xmlns:dc="http://purl.org/dc/elements/1.1/"
   xmlns:cc="http://creativecommons.org/ns#"
   xmlns:rdf="http://www.w3.org/1999/02/22-rdf-syntax-ns#"
   xmlns:svg="http://www.w3.org/2000/svg"
   xmlns="http://www.w3.org/2000/svg"
   id="svg6915"
   version="1.1"
   viewBox="0 0 71.610572 497.55055"
   height="497.55057mm"
   width="71.610573mm">
  <defs
     id="defs6909" />
  <metadata
     id="metadata6912">
    <rdf:RDF>
      <cc:Work
         rdf:about="">
        <dc:format>image/svg+xml</dc:format>
        <dc:type
           rdf:resource="http://purl.org/dc/dcmitype/StillImage" />
        <dc:title></dc:title>
      </cc:Work>
    </rdf:RDF>
  </metadata>
  <g
     transform="translate(491.21336,841.2861)"
     id="layer1">
    <path
       style="fill:#000000;fill-opacity:1;stroke:#000000;stroke-width:0;stroke-miterlimit:4;stroke-dasharray:none;stroke-opacity:1"
       id="path2062"
       d="m -485.57473,-664.97581 c 0,-40.63117 41.9138,-79.99263 41.9138,-118.71922 0,-19.68073 -11.46521,-38.5452 -46.98857,-55.59579 -0.18795,-0.18139 -0.56386,-0.63486 -0.56386,-0.81625 0,-0.54416 2.63136,-1.17903 4.5109,-1.17903 1.12773,0 2.63136,0 3.75908,0.63487 46.23675,21.7667 61.649,46.97979 61.649,72.46497 0,41.08466 -45.29698,80.80889 -45.29698,120.17034 0,19.59003 11.46522,37.91034 46.98857,55.05162 v 0.54417 0.36278 c -35.52335,17.14128 -46.98857,35.64298 -46.98857,55.05162 0,39.54283 45.29698,79.08567 45.29698,120.17033 0,25.48519 -15.41225,50.69829 -61.649,72.46499 -1.12772,0.63487 -2.63135,0.63487 -3.75908,0.63487 -1.87954,0 -4.5109,-0.63487 -4.5109,-1.17902 0,-0.18142 0.37591,-0.63487 0.56386,-0.81629 35.52336,-16.86917 46.98857,-35.91503 46.98857,-55.41437 0,-38.90801 -41.9138,-78.26946 -41.9138,-118.71923 0,-25.93866 15.03634,-50.51689 60.33331,-72.55568 -45.29697,-22.22018 -60.33331,-46.79841 -60.33331,-72.55568 z" />
  </g>
</svg>
