<?xml version="1.0" encoding="UTF-8" standalone="no"?>
<svg
   xmlns:dc="http://purl.org/dc/elements/1.1/"
   xmlns:cc="http://creativecommons.org/ns#"
   xmlns:rdf="http://www.w3.org/1999/02/22-rdf-syntax-ns#"
   xmlns:svg="http://www.w3.org/2000/svg"
   xmlns="http://www.w3.org/2000/svg"
   id="svg6915"
   version="1.1"
   viewBox="0 0 100.98625 1454.0959"
   height="1454.0959mm"
   width="100.98625mm">
  <defs
     id="defs6909" />
  <metadata
     id="metadata6912">
    <rdf:RDF>
      <cc:Work
         rdf:about="">
        <dc:format>image/svg+xml</dc:format>
        <dc:type
           rdf:resource="http://purl.org/dc/dcmitype/StillImage" />
        <dc:title></dc:title>
      </cc:Work>
    </rdf:RDF>
  </metadata>
  <g
     transform="translate(491.21336,841.2861)"
     id="layer1">
    <path
       style="fill:#000000;fill-opacity:1;stroke:#000000;stroke-width:0;stroke-miterlimit:4;stroke-dasharray:none;stroke-opacity:1"
       id="path2062"
       d="m -483.26169,-326.01768 c 0,-118.74497 59.10744,-233.77919 59.10744,-346.958 0,-57.51711 -16.1684,-112.6487 -66.26395,-162.47919 -0.26505,-0.53011 -0.79516,-1.85539 -0.79516,-2.3855 0,-1.59033 3.71078,-3.44573 6.36134,-3.44573 1.59033,0 3.71078,0 5.30111,1.8554 65.20372,63.61338 86.93829,137.29888 86.93829,211.77955 0,120.07028 -63.87844,236.16471 -63.87844,351.1989 0,57.25205 16.16841,110.79332 66.26395,160.88886 v 1.59034 1.06021 c -50.09554,50.095545 -66.26395,104.1669347 -66.26395,160.888865 0,115.564275 63.87844,231.128575 63.87844,351.198875 0,74.4807 -21.73457,148.1662 -86.93829,211.7796 -1.59033,1.8554 -3.71078,1.8554 -5.30111,1.8554 -2.65056,0 -6.36134,-1.8554 -6.36134,-3.4457 0,-0.5302 0.53011,-1.8554 0.79516,-2.3856 50.09555,-49.3003 66.26395,-104.962 66.26395,-161.949 0,-113.709 -59.10744,-228.7432 -59.10744,-346.958025 0,-75.80596 21.20446,-147.63607 85.0829,-212.044625 -63.87844,-64.93868 -85.0829,-136.76879 -85.0829,-212.04463 z" />
  </g>
</svg>
